<svg width="29" height="22" viewBox="0 0 29 22" fill="none" xmlns="http://www.w3.org/2000/svg">
<rect width="29" height="22" rx="11" fill="#222222"/>
<path d="M20.9688 19H17.043C17.043 18.7266 16.5977 17.7227 15.707 15.9883C14.8398 14.293 14.2188 13.1875 13.8438 12.6719H13.6562C13.3203 13.1328 12.7578 14.2148 11.9688 15.918C11.1562 17.6602 10.75 18.6875 10.75 19H7.12891C7.12891 18.7656 7.88672 17.4492 9.40234 15.0508C10.9258 12.6523 11.9023 11.2422 12.332 10.8203V10.6445C11.9102 10.1602 11.0781 8.97266 9.83594 7.08203C8.55469 5.10547 7.91406 3.99219 7.91406 3.74219H11.6875C11.6875 3.99219 12.0508 4.83203 12.7773 6.26172C13.5039 7.69141 14.0156 8.58594 14.3125 8.94531H14.5C14.7891 8.57812 15.2773 7.68359 15.9648 6.26172C16.6602 4.83984 17.0078 4 17.0078 3.74219H20.4766C20.4766 3.96094 19.8047 5.04687 18.4609 7C17.125 8.94531 16.2695 10.1016 15.8945 10.4688V10.6445C16.4102 11.207 17.3828 12.668 18.8125 15.0273C20.25 17.3867 20.9688 18.7109 20.9688 19Z" fill="white"/>
</svg>
