<svg width="30" height="30" viewBox="0 0 30 30" fill="none" xmlns="http://www.w3.org/2000/svg">
<circle cx="15" cy="15" r="15" fill="black"/>
<g clip-path="url(#clip0)">
<path d="M11.943 15.3691C10.1588 15.3691 8.7174 16.8105 8.74376 18.5771C8.76134 19.7109 9.38537 20.6953 10.3038 21.2446C9.99181 20.7656 9.80724 20.1987 9.79845 19.5879C9.77208 17.8213 11.2135 16.3799 12.9977 16.3799C13.3492 16.3799 13.6876 16.437 14.004 16.5381V13.0005C13.6744 12.9521 13.3361 12.9258 12.9977 12.9258C12.9801 12.9258 12.9669 12.9258 12.9493 12.9258V15.5273C12.6329 15.4263 12.2945 15.3691 11.943 15.3691Z" fill="#F00044"/>
<path d="M19.6553 4.76074H19.6289H18.7148C18.9785 6.0835 19.7212 7.23486 20.7583 8.01709C20.0771 7.11621 19.6641 5.99121 19.6553 4.76074Z" fill="#F00044"/>
<path d="M25.0342 10.144C24.687 10.144 24.353 10.1089 24.0234 10.0474V12.583C22.8281 12.583 21.668 12.3501 20.5781 11.8843C19.875 11.5855 19.2202 11.2031 18.6182 10.7417L18.6357 18.5596C18.627 20.3174 17.9326 21.9653 16.6758 23.209C15.6519 24.2197 14.3555 24.8657 12.9492 25.0723C12.6196 25.1206 12.2813 25.147 11.9429 25.147C10.4399 25.147 9.00732 24.6592 7.84277 23.7583C7.97461 23.9165 8.11523 24.0703 8.26904 24.2197C9.53467 25.4678 11.2134 26.1577 13.002 26.1577C13.3403 26.1577 13.6787 26.1314 14.0083 26.083C15.4146 25.8765 16.7109 25.2305 17.7349 24.2197C18.9917 22.9761 19.686 21.3281 19.6948 19.5703L19.6289 11.7524C20.2266 12.2139 20.8813 12.6006 21.5889 12.895C22.6831 13.3564 23.8433 13.5938 25.0342 13.5938" fill="#F00044"/>
<path d="M8.25588 14.8726C9.50832 13.6289 11.1738 12.939 12.9492 12.9258V11.9897C12.6196 11.9414 12.2813 11.915 11.9429 11.915C10.1499 11.915 8.46682 12.605 7.20119 13.8618C5.95754 15.0967 5.24563 16.7842 5.25002 18.5376C5.25002 20.3042 5.94875 21.9609 7.20998 23.2134C7.41213 23.4111 7.61867 23.5957 7.8384 23.7627C6.84523 22.5806 6.30471 21.104 6.30031 19.5483C6.30471 17.7949 7.01223 16.1074 8.25588 14.8726Z" fill="#08FFF9"/>
<path d="M24.0234 10.0474V9.10693H24.0146C22.793 9.10693 21.668 8.70264 20.7627 8.01709C21.5493 9.0542 22.7007 9.79248 24.0234 10.0474Z" fill="#08FFF9"/>
<path d="M12.8174 22.6992C13.2349 22.7212 13.6348 22.6641 14.0039 22.5454C15.2783 22.1279 16.1968 20.9414 16.1968 19.5439L16.2012 14.3145V4.76074H18.7149C18.6489 4.43115 18.6138 4.09717 18.6094 3.75H15.1465V13.2993L15.1421 18.5288C15.1421 19.9263 14.2236 21.1128 12.9492 21.5303C12.5801 21.6533 12.1802 21.7105 11.7627 21.6841C11.231 21.6533 10.7344 21.4951 10.3037 21.2402C10.8442 22.0752 11.7671 22.6421 12.8174 22.6992Z" fill="#08FFF9"/>
<path d="M12.9492 25.0723C14.3555 24.8657 15.6519 24.2197 16.6758 23.209C17.9326 21.9653 18.627 20.3174 18.6358 18.5596L18.6182 10.7417C19.2158 11.2031 19.8706 11.5898 20.5782 11.8843C21.6724 12.3457 22.8325 12.583 24.0235 12.583V10.0474C22.7007 9.79248 21.5493 9.0542 20.7627 8.01709C19.7256 7.23486 18.9785 6.0835 18.7193 4.76074H16.2012V14.3101L16.1968 19.5395C16.1968 20.937 15.2783 22.1235 14.0039 22.541C13.6348 22.6641 13.2349 22.7212 12.8174 22.6948C11.7627 22.6377 10.8443 22.0708 10.3037 21.2402C9.38528 20.6953 8.76125 19.7065 8.74367 18.5728C8.71731 16.8062 10.1587 15.3647 11.9429 15.3647C12.2945 15.3647 12.6328 15.4219 12.9492 15.5229V12.9214C11.1738 12.9346 9.50832 13.6245 8.25588 14.8682C7.01223 16.103 6.30031 17.7905 6.30471 19.5395C6.30471 21.0952 6.84524 22.5718 7.84279 23.7539C9.01174 24.6548 10.44 25.1426 11.9429 25.1426C12.2813 25.147 12.6197 25.1206 12.9492 25.0723Z" fill="white"/>
</g>
<defs>
<clipPath id="clip0">
<rect width="22.5" height="22.5" fill="white" transform="translate(5.25 4.5)"/>
</clipPath>
</defs>
</svg>
