<svg width="224" height="70" viewBox="0 0 224 70" fill="none" xmlns="http://www.w3.org/2000/svg">
<path d="M54.3153 57.1028V57.3421C53.9768 57.4658 53.7115 57.6611 53.5194 57.928C53.3274 58.1917 53.2313 58.4668 53.2313 58.7532C53.2313 58.8151 53.2411 58.8606 53.2606 58.8899C53.2736 58.9095 53.2883 58.9192 53.3046 58.9192C53.3208 58.9192 53.3453 58.9078 53.3778 58.885C53.482 58.8102 53.6138 58.7727 53.7733 58.7727C53.9589 58.7727 54.1233 58.8492 54.2665 59.0022C54.4097 59.152 54.4813 59.331 54.4813 59.5393C54.4813 59.7574 54.3983 59.9495 54.2323 60.1155C54.0695 60.2815 53.871 60.3645 53.6366 60.3645C53.3632 60.3645 53.1272 60.2522 52.9286 60.0276C52.73 59.803 52.6307 59.5019 52.6307 59.1243C52.6307 58.6849 52.7658 58.291 53.036 57.9427C53.3062 57.5944 53.7326 57.3144 54.3153 57.1028ZM51.9667 57.1028V57.3421C51.6281 57.4658 51.3628 57.6611 51.1708 57.928C50.9787 58.1917 50.8827 58.4668 50.8827 58.7532C50.8827 58.8151 50.8925 58.8606 50.912 58.8899C50.925 58.9095 50.9397 58.9192 50.9559 58.9192C50.9722 58.9192 50.9966 58.9078 51.0292 58.885C51.1333 58.8102 51.2652 58.7727 51.4247 58.7727C51.6102 58.7727 51.7746 58.8492 51.9178 59.0022C52.0611 59.152 52.1327 59.331 52.1327 59.5393C52.1327 59.7574 52.0497 59.9495 51.8837 60.1155C51.7209 60.2815 51.5223 60.3645 51.288 60.3645C51.0145 60.3645 50.7785 60.2522 50.58 60.0276C50.3814 59.803 50.2821 59.5019 50.2821 59.1243C50.2821 58.6849 50.4172 58.291 50.6874 57.9427C50.9576 57.5944 51.384 57.3144 51.9667 57.1028ZM57.5868 60.8772V62.7132C57.5868 63.0712 57.608 63.2975 57.6503 63.3919C57.6958 63.483 57.774 63.5563 57.8846 63.6116C57.9986 63.6669 58.2053 63.6946 58.5048 63.6946V63.8753H55.1405V63.6946C55.4465 63.6946 55.6532 63.6669 55.7606 63.6116C55.8713 63.553 55.9478 63.4781 55.9901 63.387C56.0357 63.2959 56.0585 63.0712 56.0585 62.7132V58.4163C56.0585 58.0582 56.0357 57.8336 55.9901 57.7425C55.9478 57.6481 55.8713 57.5732 55.7606 57.5179C55.6499 57.4625 55.4432 57.4349 55.1405 57.4349V57.2542H58.0262C58.9768 57.2542 59.6587 57.4235 60.0721 57.762C60.4856 58.1005 60.6923 58.5237 60.6923 59.0315C60.6923 59.4612 60.5588 59.8291 60.2919 60.135C60.0249 60.441 59.6571 60.6494 59.1884 60.76C58.8726 60.8382 58.3387 60.8772 57.5868 60.8772ZM57.5868 57.635V60.4964C57.6942 60.5029 57.7756 60.5061 57.8309 60.5061C58.2281 60.5061 58.5341 60.389 58.7489 60.1546C58.9637 59.9169 59.0712 59.5507 59.0712 59.0559C59.0712 58.5644 58.9637 58.2047 58.7489 57.9768C58.5341 57.749 58.2134 57.635 57.787 57.635H57.5868ZM64.8622 57.1614C65.9169 57.1224 66.773 57.43 67.4305 58.0843C68.0913 58.7386 68.4218 59.5572 68.4218 60.5403C68.4218 61.3802 68.176 62.1191 67.6844 62.7571C67.0334 63.6035 66.1138 64.0266 64.9257 64.0266C63.7343 64.0266 62.813 63.623 62.162 62.8157C61.6477 62.1777 61.3905 61.4209 61.3905 60.5452C61.3905 59.5621 61.7242 58.7434 62.3915 58.0891C63.0621 57.4316 63.8856 57.1224 64.8622 57.1614ZM64.9208 57.4739C64.3153 57.4739 63.8547 57.7832 63.5389 58.4016C63.2818 58.9095 63.1532 59.6386 63.1532 60.5891C63.1532 61.7187 63.3518 62.5537 63.7489 63.094C64.0256 63.4716 64.413 63.6604 64.911 63.6604C65.2463 63.6604 65.5262 63.5791 65.7509 63.4163C66.0373 63.208 66.2603 62.8759 66.4198 62.4202C66.5793 61.9612 66.6591 61.3639 66.6591 60.6282C66.6591 59.7526 66.5777 59.0983 66.4149 58.6653C66.2522 58.2291 66.0438 57.9215 65.7899 57.7425C65.5393 57.5634 65.2496 57.4739 64.9208 57.4739ZM78.6952 57.2542V57.4349C78.5715 57.4446 78.4673 57.4788 78.3827 57.5374C78.2981 57.596 78.2232 57.6855 78.1581 57.8059C78.1385 57.845 78.036 58.0973 77.8505 58.5628L75.7753 64.0266H75.5848L73.9442 59.7591L72.1376 64.0266H71.9569L69.7792 58.6214C69.5578 58.0778 69.4032 57.749 69.3153 57.635C69.2274 57.5211 69.0793 57.4544 68.871 57.4349V57.2542H71.7421V57.4349C71.5109 57.4414 71.3563 57.4772 71.2782 57.5423C71.2033 57.6041 71.1659 57.6822 71.1659 57.7766C71.1659 57.9003 71.2456 58.1624 71.4052 58.5628L72.704 61.7757L73.744 59.2659L73.4706 58.5628C73.3208 58.1787 73.2053 57.9231 73.1239 57.7962C73.0425 57.666 72.9481 57.5732 72.8407 57.5179C72.7365 57.4625 72.5819 57.4349 72.3768 57.4349V57.2542H75.5848V57.4349C75.3602 57.4381 75.1991 57.456 75.1014 57.4886C75.0331 57.5113 74.9794 57.5504 74.9403 57.6058C74.9012 57.6578 74.8817 57.7181 74.8817 57.7864C74.8817 57.8613 74.955 58.0908 75.1014 58.4749L76.3075 61.6097L77.3866 58.7727C77.5005 58.4798 77.5705 58.2796 77.5966 58.1722C77.6226 58.0647 77.6356 57.9655 77.6356 57.8743C77.6356 57.7408 77.59 57.6367 77.4989 57.5618C77.4078 57.4837 77.2336 57.4414 76.9764 57.4349V57.2542H78.6952ZM81.5077 57.635V60.3304H81.6395C82.0594 60.3304 82.3638 60.1985 82.5526 59.9349C82.7414 59.6712 82.8619 59.2822 82.9139 58.7679H83.0995V62.2347H82.9139C82.8749 61.8571 82.7919 61.5478 82.6649 61.3069C82.5412 61.066 82.3964 60.9049 82.2303 60.8235C82.0643 60.7389 81.8234 60.6966 81.5077 60.6966V62.5618C81.5077 62.9264 81.5223 63.1494 81.5516 63.2308C81.5842 63.3121 81.6428 63.3789 81.7274 63.4309C81.8121 63.483 81.9488 63.5091 82.1376 63.5091H82.5331C83.1516 63.5091 83.6464 63.3658 84.0175 63.0794C84.3918 62.7929 84.6604 62.3567 84.8231 61.7708H85.0038L84.7059 63.8753H78.9833V63.6946H79.203C79.3951 63.6946 79.5497 63.6604 79.6669 63.5921C79.7515 63.5465 79.8166 63.4684 79.8622 63.3577C79.898 63.2796 79.9159 63.0745 79.9159 62.7425V58.387C79.9159 58.0875 79.9078 57.9036 79.8915 57.8352C79.8589 57.7213 79.7987 57.6334 79.7108 57.5716C79.5871 57.4804 79.4178 57.4349 79.203 57.4349H78.9833V57.2542H84.5253V59.2122H84.3397C84.2453 58.7337 84.1119 58.3903 83.9393 58.1819C83.7701 57.9736 83.5292 57.8206 83.2167 57.7229C83.0344 57.6643 82.6926 57.635 82.1913 57.635H81.5077ZM88.1093 60.8577V62.7132C88.1093 63.0712 88.1304 63.2975 88.1727 63.3919C88.2183 63.483 88.2964 63.5563 88.4071 63.6116C88.5178 63.6669 88.7245 63.6946 89.0272 63.6946V63.8753H85.6385V63.6946C85.9445 63.6946 86.1512 63.6669 86.2587 63.6116C86.3693 63.553 86.4458 63.4781 86.4882 63.387C86.5337 63.2959 86.5565 63.0712 86.5565 62.7132V58.4163C86.5565 58.0582 86.5337 57.8336 86.4882 57.7425C86.4458 57.6481 86.3693 57.5732 86.2587 57.5179C86.148 57.4625 85.9413 57.4349 85.6385 57.4349V57.2542H88.7147C89.5155 57.2542 90.1014 57.3095 90.4725 57.4202C90.8436 57.5309 91.1464 57.736 91.3807 58.0354C91.6151 58.3317 91.7323 58.68 91.7323 59.0804C91.7323 59.5686 91.5565 59.9723 91.205 60.2913C90.9803 60.4931 90.6662 60.6445 90.2626 60.7454L91.8544 62.9866C92.0627 63.2763 92.2108 63.457 92.2987 63.5286C92.4322 63.6295 92.5868 63.6849 92.7626 63.6946V63.8753H90.6776L88.5438 60.8577H88.1093ZM88.1093 57.6106V60.511H88.3876C88.84 60.511 89.1786 60.4703 89.4032 60.389C89.6278 60.3043 89.8036 60.1546 89.9305 59.9397C90.0608 59.7216 90.1259 59.4384 90.1259 59.0901C90.1259 58.5856 90.007 58.2128 89.7694 57.972C89.535 57.7311 89.1558 57.6106 88.6317 57.6106H88.1093ZM97.328 57.6399V59.3099H98.412V59.7933H97.328V62.6106C97.328 62.8743 97.3394 63.0452 97.3622 63.1233C97.3882 63.1982 97.4322 63.26 97.494 63.3089C97.5559 63.3544 97.6128 63.3772 97.6649 63.3772C97.8765 63.3772 98.0767 63.2161 98.2655 62.8938L98.412 63.0013C98.1483 63.6263 97.7203 63.9388 97.1278 63.9388C96.8381 63.9388 96.5923 63.859 96.3905 63.6995C96.1919 63.5367 96.065 63.3561 96.0096 63.1575C95.9771 63.0468 95.9608 62.7474 95.9608 62.2591V59.7933H95.3651V59.6224C95.7753 59.3326 96.1236 59.0283 96.41 58.7093C96.6997 58.3903 96.952 58.0338 97.1669 57.6399H97.328ZM101 59.1731C101.397 59.1731 101.766 59.2757 102.108 59.4808C102.45 59.6858 102.709 59.9772 102.885 60.3548C103.064 60.7324 103.153 61.1458 103.153 61.595C103.153 62.2428 102.989 62.7848 102.66 63.221C102.263 63.7483 101.714 64.012 101.015 64.012C100.328 64.012 99.7987 63.7711 99.4276 63.2893C99.0565 62.8076 98.871 62.2493 98.871 61.6145C98.871 60.9602 99.0598 60.3906 99.4374 59.9056C99.8182 59.4173 100.339 59.1731 101 59.1731ZM101.019 59.5198C100.853 59.5198 100.71 59.5833 100.59 59.7102C100.473 59.8339 100.394 60.0813 100.355 60.4524C100.32 60.8203 100.302 61.333 100.302 61.9905C100.302 62.3388 100.324 62.6643 100.37 62.9671C100.406 63.1982 100.482 63.374 100.599 63.4944C100.717 63.6149 100.85 63.6751 101 63.6751C101.146 63.6751 101.268 63.6344 101.366 63.553C101.493 63.4423 101.578 63.2877 101.62 63.0891C101.685 62.7799 101.718 62.1549 101.718 61.2141C101.718 60.6608 101.687 60.2815 101.625 60.0765C101.563 59.8681 101.472 59.7168 101.351 59.6224C101.267 59.554 101.156 59.5198 101.019 59.5198ZM112.748 57.2542V57.4349C112.53 57.4641 112.362 57.5276 112.245 57.6253C112.082 57.762 111.825 58.1347 111.474 58.7434L110.038 61.1409V62.7425C110.038 63.0843 110.056 63.2975 110.092 63.3821C110.127 63.4635 110.197 63.5367 110.302 63.6018C110.409 63.6637 110.551 63.6946 110.726 63.6946H111.098V63.8753H107.382V63.6946H107.728C107.924 63.6946 108.078 63.6604 108.192 63.5921C108.277 63.5465 108.344 63.4684 108.392 63.3577C108.428 63.2796 108.446 63.0745 108.446 62.7425V61.4143L106.889 58.5774C106.579 58.0175 106.361 57.6888 106.234 57.5911C106.107 57.4902 105.938 57.4381 105.726 57.4349V57.2542H108.9V57.4349H108.759C108.567 57.4349 108.432 57.4625 108.353 57.5179C108.279 57.5732 108.241 57.6318 108.241 57.6936C108.241 57.8108 108.371 58.1054 108.632 58.5774L109.828 60.7698L111.019 58.7727C111.316 58.2845 111.464 57.9606 111.464 57.8011C111.464 57.7132 111.421 57.6399 111.337 57.5813C111.226 57.5 111.023 57.4511 110.726 57.4349V57.2542H112.748ZM114.242 59.1731C114.639 59.1731 115.009 59.2757 115.35 59.4808C115.692 59.6858 115.951 59.9772 116.127 60.3548C116.306 60.7324 116.395 61.1458 116.395 61.595C116.395 62.2428 116.231 62.7848 115.902 63.221C115.505 63.7483 114.957 64.012 114.257 64.012C113.57 64.012 113.041 63.7711 112.67 63.2893C112.299 62.8076 112.113 62.2493 112.113 61.6145C112.113 60.9602 112.302 60.3906 112.68 59.9056C113.06 59.4173 113.581 59.1731 114.242 59.1731ZM114.262 59.5198C114.096 59.5198 113.952 59.5833 113.832 59.7102C113.715 59.8339 113.637 60.0813 113.598 60.4524C113.562 60.8203 113.544 61.333 113.544 61.9905C113.544 62.3388 113.567 62.6643 113.612 62.9671C113.648 63.1982 113.724 63.374 113.842 63.4944C113.959 63.6149 114.092 63.6751 114.242 63.6751C114.389 63.6751 114.511 63.6344 114.608 63.553C114.735 63.4423 114.82 63.2877 114.862 63.0891C114.927 62.7799 114.96 62.1549 114.96 61.2141C114.96 60.6608 114.929 60.2815 114.867 60.0765C114.805 59.8681 114.714 59.7168 114.594 59.6224C114.509 59.554 114.398 59.5198 114.262 59.5198ZM121.498 59.3099V62.8841C121.498 63.2324 121.53 63.4505 121.596 63.5384C121.661 63.623 121.793 63.6767 121.991 63.6995V63.8753H120.131V63.2649C119.913 63.5253 119.695 63.7158 119.476 63.8362C119.258 63.9534 119.014 64.012 118.744 64.012C118.487 64.012 118.257 63.9339 118.056 63.7776C117.857 63.6181 117.724 63.4326 117.655 63.221C117.587 63.0094 117.553 62.6399 117.553 62.1126V60.3011C117.553 59.956 117.52 59.7412 117.455 59.6565C117.393 59.5719 117.261 59.5166 117.059 59.4905V59.3099H118.92V62.43C118.92 62.7555 118.934 62.9655 118.964 63.0599C118.996 63.1543 119.045 63.2259 119.11 63.2747C119.179 63.3235 119.257 63.3479 119.345 63.3479C119.462 63.3479 119.568 63.317 119.662 63.2552C119.792 63.1705 119.948 62.9996 120.131 62.7425V60.3011C120.131 59.956 120.098 59.7412 120.033 59.6565C119.971 59.5719 119.839 59.5166 119.638 59.4905V59.3099H121.498ZM124.55 59.3099V60.345C124.852 59.873 125.118 59.5605 125.346 59.4075C125.573 59.2513 125.793 59.1731 126.005 59.1731C126.187 59.1731 126.332 59.2301 126.439 59.344C126.55 59.4547 126.605 59.6126 126.605 59.8177C126.605 60.0358 126.552 60.205 126.444 60.3255C126.34 60.4459 126.213 60.5061 126.063 60.5061C125.891 60.5061 125.741 60.4508 125.614 60.3401C125.487 60.2294 125.412 60.1676 125.39 60.1546C125.357 60.135 125.32 60.1253 125.277 60.1253C125.183 60.1253 125.093 60.1611 125.009 60.2327C124.875 60.3434 124.774 60.5013 124.706 60.7063C124.602 61.0221 124.55 61.3704 124.55 61.7513V62.8011L124.555 63.0745C124.555 63.26 124.566 63.3789 124.589 63.4309C124.628 63.5188 124.685 63.5839 124.76 63.6263C124.838 63.6653 124.968 63.6897 125.15 63.6995V63.8753H122.684V63.6995C122.883 63.6832 123.016 63.6295 123.085 63.5384C123.156 63.444 123.192 63.1982 123.192 62.8011V60.2766C123.192 60.0162 123.179 59.8502 123.153 59.7786C123.121 59.6875 123.073 59.6207 123.012 59.5784C122.95 59.5361 122.841 59.5068 122.684 59.4905V59.3099H124.55ZM133.773 57.1028L133.827 59.3099H133.627C133.532 58.7565 133.3 58.3121 132.929 57.9768C132.561 57.6383 132.162 57.469 131.732 57.469C131.4 57.469 131.137 57.5586 130.941 57.7376C130.749 57.9134 130.653 58.1168 130.653 58.3479C130.653 58.4944 130.687 58.6246 130.756 58.7386C130.85 58.8916 131.002 59.0429 131.21 59.1927C131.363 59.3001 131.716 59.4905 132.269 59.764C133.044 60.1448 133.567 60.5045 133.837 60.8431C134.104 61.1816 134.237 61.569 134.237 62.0052C134.237 62.5586 134.021 63.0354 133.588 63.4358C133.158 63.833 132.611 64.0315 131.947 64.0315C131.739 64.0315 131.542 64.0104 131.356 63.9681C131.171 63.9257 130.938 63.846 130.658 63.7288C130.502 63.6637 130.373 63.6311 130.272 63.6311C130.188 63.6311 130.098 63.6637 130.004 63.7288C129.909 63.7939 129.833 63.8932 129.774 64.0266H129.594V61.5266H129.774C129.918 62.2298 130.193 62.7669 130.599 63.138C131.01 63.5058 131.451 63.6897 131.923 63.6897C132.287 63.6897 132.577 63.5905 132.792 63.3919C133.01 63.1933 133.119 62.9622 133.119 62.6985C133.119 62.5423 133.077 62.3909 132.992 62.2444C132.911 62.0979 132.785 61.9596 132.616 61.8294C132.447 61.6959 132.147 61.5234 131.718 61.3118C131.115 61.0156 130.682 60.7633 130.419 60.555C130.155 60.3466 129.952 60.1139 129.808 59.8567C129.668 59.5996 129.599 59.3164 129.599 59.0071C129.599 58.4798 129.792 58.0306 130.18 57.6595C130.567 57.2884 131.055 57.1028 131.644 57.1028C131.859 57.1028 132.068 57.1289 132.269 57.1809C132.422 57.22 132.608 57.2933 132.826 57.4007C133.047 57.5048 133.202 57.5569 133.29 57.5569C133.375 57.5569 133.441 57.5309 133.49 57.4788C133.539 57.4267 133.585 57.3014 133.627 57.1028H133.773ZM136.747 63.4114V65.1106C136.747 65.345 136.765 65.5045 136.801 65.5891C136.84 65.6738 136.898 65.7356 136.976 65.7747C137.055 65.8138 137.208 65.8333 137.435 65.8333V66.014H134.833V65.8333C135.035 65.8268 135.184 65.7698 135.282 65.6624C135.347 65.5875 135.38 65.3938 135.38 65.0813V60.262C135.38 59.9397 135.342 59.7347 135.267 59.6468C135.193 59.5556 135.048 59.5035 134.833 59.4905V59.3099H136.747V59.9104C136.906 59.6761 137.069 59.5068 137.235 59.4026C137.473 59.2496 137.732 59.1731 138.012 59.1731C138.347 59.1731 138.651 59.2789 138.925 59.4905C139.201 59.7021 139.411 59.9951 139.555 60.3694C139.698 60.7405 139.769 61.1409 139.769 61.5706C139.769 62.0328 139.695 62.456 139.545 62.8401C139.398 63.221 139.183 63.5123 138.9 63.7141C138.62 63.9127 138.308 64.012 137.963 64.012C137.712 64.012 137.478 63.9567 137.26 63.846C137.097 63.7613 136.926 63.6165 136.747 63.4114ZM136.747 62.9183C137.027 63.3154 137.326 63.514 137.645 63.514C137.821 63.514 137.966 63.4212 138.08 63.2356C138.249 62.9622 138.334 62.4414 138.334 61.6731C138.334 60.8854 138.241 60.3466 138.056 60.0569C137.932 59.8649 137.766 59.7688 137.557 59.7688C137.229 59.7688 136.959 60.0065 136.747 60.4817V62.9183ZM144.413 61.429H141.908C141.937 62.0345 142.099 62.513 142.391 62.8645C142.616 63.1347 142.886 63.2698 143.202 63.2698C143.397 63.2698 143.575 63.2161 143.734 63.1087C143.894 62.998 144.065 62.8011 144.247 62.5179L144.413 62.6253C144.166 63.1298 143.892 63.4879 143.593 63.6995C143.293 63.9078 142.946 64.012 142.553 64.012C141.876 64.012 141.363 63.7516 141.015 63.2308C140.735 62.8108 140.595 62.29 140.595 61.6683C140.595 60.9065 140.8 60.3011 141.21 59.8518C141.623 59.3994 142.107 59.1731 142.66 59.1731C143.122 59.1731 143.523 59.3636 143.861 59.7444C144.203 60.122 144.387 60.6836 144.413 61.429ZM143.212 61.1018C143.212 60.5778 143.182 60.2181 143.124 60.0227C143.069 59.8274 142.981 59.6793 142.86 59.5784C142.792 59.5198 142.701 59.4905 142.587 59.4905C142.418 59.4905 142.279 59.5735 142.172 59.7395C141.98 60.0293 141.884 60.4264 141.884 60.9309V61.1018H143.212ZM148.856 61.429H146.351C146.381 62.0345 146.542 62.513 146.835 62.8645C147.059 63.1347 147.33 63.2698 147.645 63.2698C147.841 63.2698 148.018 63.2161 148.178 63.1087C148.337 62.998 148.508 62.8011 148.69 62.5179L148.856 62.6253C148.609 63.1298 148.335 63.4879 148.036 63.6995C147.737 63.9078 147.39 64.012 146.996 64.012C146.319 64.012 145.806 63.7516 145.458 63.2308C145.178 62.8108 145.038 62.29 145.038 61.6683C145.038 60.9065 145.243 60.3011 145.653 59.8518C146.067 59.3994 146.55 59.1731 147.103 59.1731C147.566 59.1731 147.966 59.3636 148.305 59.7444C148.646 60.122 148.83 60.6836 148.856 61.429ZM147.655 61.1018C147.655 60.5778 147.626 60.2181 147.567 60.0227C147.512 59.8274 147.424 59.6793 147.304 59.5784C147.235 59.5198 147.144 59.4905 147.03 59.4905C146.861 59.4905 146.723 59.5735 146.615 59.7395C146.423 60.0293 146.327 60.4264 146.327 60.9309V61.1018H147.655ZM153.158 62.6985L153.309 62.8157C153.095 63.2194 152.826 63.5205 152.504 63.719C152.185 63.9143 151.845 64.012 151.483 64.012C150.875 64.012 150.388 63.7825 150.023 63.3235C149.659 62.8645 149.476 62.3128 149.476 61.6683C149.476 61.0465 149.642 60.4996 149.974 60.0276C150.375 59.458 150.927 59.1731 151.63 59.1731C152.102 59.1731 152.476 59.2919 152.753 59.5296C153.033 59.7672 153.173 60.0325 153.173 60.3255C153.173 60.511 153.116 60.6591 153.002 60.7698C152.891 60.8805 152.745 60.9358 152.562 60.9358C152.37 60.9358 152.211 60.8724 152.084 60.7454C151.96 60.6184 151.884 60.3922 151.854 60.0667C151.835 59.8616 151.788 59.7184 151.713 59.637C151.638 59.5556 151.55 59.5149 151.449 59.5149C151.293 59.5149 151.159 59.5979 151.049 59.764C150.879 60.0146 150.795 60.3987 150.795 60.9163C150.795 61.346 150.863 61.7578 151 62.1516C151.137 62.5423 151.324 62.8336 151.561 63.0257C151.74 63.1656 151.952 63.2356 152.196 63.2356C152.356 63.2356 152.507 63.1982 152.65 63.1233C152.793 63.0485 152.963 62.9069 153.158 62.6985ZM155.741 57.2542V59.8958C155.992 59.6321 156.221 59.4466 156.43 59.3391C156.638 59.2285 156.854 59.1731 157.079 59.1731C157.365 59.1731 157.61 59.2545 157.811 59.4173C158.016 59.58 158.152 59.7721 158.217 59.9934C158.285 60.2115 158.319 60.581 158.319 61.1018V62.8841C158.319 63.2324 158.352 63.4505 158.417 63.5384C158.482 63.623 158.614 63.6767 158.812 63.6995V63.8753H156.498V63.6995C156.661 63.6767 156.783 63.6116 156.864 63.5042C156.923 63.4196 156.952 63.2128 156.952 62.8841V60.8479C156.952 60.4703 156.937 60.2343 156.908 60.1399C156.879 60.0423 156.828 59.9674 156.757 59.9153C156.688 59.86 156.61 59.8323 156.522 59.8323C156.392 59.8323 156.265 59.8779 156.141 59.969C156.018 60.0569 155.884 60.2132 155.741 60.4378V62.8841C155.741 63.2096 155.766 63.413 155.814 63.4944C155.876 63.6051 156.003 63.6735 156.195 63.6995V63.8753H153.881V63.6995C154.073 63.68 154.21 63.6181 154.291 63.514C154.346 63.4423 154.374 63.2324 154.374 62.8841V58.2454C154.374 57.9003 154.341 57.6855 154.276 57.6009C154.214 57.5162 154.083 57.4609 153.881 57.4349V57.2542H155.741ZM164.462 63.2015C163.905 63.693 163.405 63.9388 162.963 63.9388C162.702 63.9388 162.486 63.8541 162.313 63.6849C162.141 63.5123 162.055 63.2975 162.055 63.0403C162.055 62.692 162.204 62.3795 162.504 62.1028C162.803 61.8229 163.456 61.4518 164.462 60.9895V60.5306C164.462 60.1855 164.442 59.969 164.403 59.8811C164.367 59.79 164.297 59.7119 164.193 59.6468C164.089 59.5784 163.972 59.5442 163.842 59.5442C163.63 59.5442 163.456 59.5914 163.319 59.6858C163.235 59.7444 163.192 59.8128 163.192 59.8909C163.192 59.9593 163.238 60.0439 163.329 60.1448C163.453 60.2848 163.515 60.4199 163.515 60.5501C163.515 60.7096 163.454 60.8463 163.334 60.9602C163.217 61.0709 163.062 61.1263 162.87 61.1263C162.665 61.1263 162.492 61.0644 162.352 60.9407C162.216 60.817 162.147 60.6722 162.147 60.5061C162.147 60.2718 162.24 60.0488 162.426 59.8372C162.611 59.6224 162.87 59.458 163.202 59.344C163.534 59.2301 163.879 59.1731 164.237 59.1731C164.67 59.1731 165.012 59.2659 165.263 59.4515C165.516 59.6337 165.681 59.8323 165.756 60.0472C165.801 60.1839 165.824 60.498 165.824 60.9895V62.762C165.824 62.9703 165.832 63.1022 165.849 63.1575C165.865 63.2096 165.889 63.2487 165.922 63.2747C165.954 63.3007 165.992 63.3138 166.034 63.3138C166.119 63.3138 166.205 63.2535 166.293 63.1331L166.439 63.2503C166.277 63.4912 166.107 63.6669 165.932 63.7776C165.759 63.885 165.562 63.9388 165.341 63.9388C165.08 63.9388 164.877 63.8785 164.73 63.7581C164.584 63.6344 164.494 63.4488 164.462 63.2015ZM164.462 62.845V61.3167C164.068 61.5478 163.775 61.7952 163.583 62.0589C163.456 62.2347 163.392 62.4121 163.392 62.5911C163.392 62.7408 163.446 62.8727 163.554 62.9866C163.635 63.0745 163.749 63.1184 163.895 63.1184C164.058 63.1184 164.247 63.0273 164.462 62.845ZM168.807 59.3099V59.9007C169.042 59.6468 169.266 59.4628 169.481 59.3489C169.696 59.2317 169.927 59.1731 170.175 59.1731C170.471 59.1731 170.717 59.2561 170.912 59.4222C171.107 59.5849 171.238 59.7884 171.303 60.0325C171.355 60.2181 171.381 60.5745 171.381 61.1018V62.8792C171.381 63.2308 171.412 63.4505 171.474 63.5384C171.539 63.623 171.672 63.6767 171.874 63.6995V63.8753H169.564V63.6995C169.737 63.6767 169.861 63.6051 169.935 63.4847C169.988 63.4033 170.014 63.2015 170.014 62.8792V60.8479C170.014 60.4736 169.999 60.2376 169.97 60.1399C169.94 60.0423 169.89 59.9674 169.818 59.9153C169.75 59.86 169.673 59.8323 169.589 59.8323C169.309 59.8323 169.048 60.0325 168.807 60.4329V62.8792C168.807 63.221 168.838 63.4375 168.9 63.5286C168.965 63.6197 169.084 63.6767 169.257 63.6995V63.8753H166.947V63.6995C167.139 63.68 167.276 63.6181 167.357 63.514C167.413 63.4423 167.44 63.2308 167.44 62.8792V60.3011C167.44 59.956 167.408 59.7412 167.343 59.6565C167.281 59.5719 167.149 59.5166 166.947 59.4905V59.3099H168.807ZM176.947 57.2542V62.5081C176.947 62.8629 176.957 63.0729 176.976 63.138C177.002 63.2454 177.051 63.3252 177.123 63.3772C177.198 63.4293 177.326 63.4619 177.509 63.4749V63.636L175.58 64.012V63.2893C175.349 63.5693 175.142 63.7597 174.96 63.8606C174.781 63.9615 174.577 64.012 174.349 64.012C173.767 64.012 173.306 63.7516 172.968 63.2308C172.694 62.8076 172.557 62.2884 172.557 61.6731C172.557 61.1816 172.642 60.7421 172.811 60.3548C172.981 59.9641 173.212 59.6696 173.505 59.471C173.801 59.2724 174.118 59.1731 174.457 59.1731C174.675 59.1731 174.869 59.2155 175.038 59.3001C175.207 59.3847 175.388 59.5328 175.58 59.7444V58.3675C175.58 58.0192 175.565 57.8092 175.536 57.7376C175.497 57.6432 175.438 57.5732 175.36 57.5276C175.282 57.4821 175.136 57.4593 174.921 57.4593V57.2542H176.947ZM175.58 60.3499C175.339 59.8877 175.044 59.6565 174.696 59.6565C174.576 59.6565 174.476 59.6891 174.398 59.7542C174.278 59.8551 174.179 60.0325 174.1 60.2864C174.026 60.5403 173.988 60.9293 173.988 61.4534C173.988 62.0296 174.03 62.456 174.115 62.7327C174.2 63.0094 174.315 63.2096 174.462 63.3333C174.537 63.3951 174.639 63.4261 174.769 63.4261C175.056 63.4261 175.326 63.2015 175.58 62.7522V60.3499ZM189.965 57.2542V57.4349C189.841 57.4446 189.737 57.4788 189.652 57.5374C189.568 57.596 189.493 57.6855 189.428 57.8059C189.408 57.845 189.306 58.0973 189.12 58.5628L187.045 64.0266H186.854L185.214 59.7591L183.407 64.0266H183.226L181.049 58.6214C180.827 58.0778 180.673 57.749 180.585 57.635C180.497 57.5211 180.349 57.4544 180.141 57.4349V57.2542H183.012V57.4349C182.78 57.4414 182.626 57.4772 182.548 57.5423C182.473 57.6041 182.435 57.6822 182.435 57.7766C182.435 57.9003 182.515 58.1624 182.675 58.5628L183.974 61.7757L185.014 59.2659L184.74 58.5628C184.59 58.1787 184.475 57.9231 184.393 57.7962C184.312 57.666 184.218 57.5732 184.11 57.5179C184.006 57.4625 183.851 57.4349 183.646 57.4349V57.2542H186.854V57.4349C186.63 57.4381 186.469 57.456 186.371 57.4886C186.303 57.5113 186.249 57.5504 186.21 57.6058C186.171 57.6578 186.151 57.7181 186.151 57.7864C186.151 57.8613 186.224 58.0908 186.371 58.4749L187.577 61.6097L188.656 58.7727C188.77 58.4798 188.84 58.2796 188.866 58.1722C188.892 58.0647 188.905 57.9655 188.905 57.8743C188.905 57.7408 188.86 57.6367 188.768 57.5618C188.677 57.4837 188.503 57.4414 188.246 57.4349V57.2542H189.965ZM192.099 59.3099V60.345C192.401 59.873 192.667 59.5605 192.894 59.4075C193.122 59.2513 193.342 59.1731 193.554 59.1731C193.736 59.1731 193.881 59.2301 193.988 59.344C194.099 59.4547 194.154 59.6126 194.154 59.8177C194.154 60.0358 194.1 60.205 193.993 60.3255C193.889 60.4459 193.762 60.5061 193.612 60.5061C193.44 60.5061 193.29 60.4508 193.163 60.3401C193.036 60.2294 192.961 60.1676 192.938 60.1546C192.906 60.135 192.868 60.1253 192.826 60.1253C192.732 60.1253 192.642 60.1611 192.557 60.2327C192.424 60.3434 192.323 60.5013 192.255 60.7063C192.151 61.0221 192.099 61.3704 192.099 61.7513V62.8011L192.103 63.0745C192.103 63.26 192.115 63.3789 192.138 63.4309C192.177 63.5188 192.234 63.5839 192.308 63.6263C192.387 63.6653 192.517 63.6897 192.699 63.6995V63.8753H190.233V63.6995C190.432 63.6832 190.565 63.6295 190.634 63.5384C190.705 63.444 190.741 63.1982 190.741 62.8011V60.2766C190.741 60.0162 190.728 59.8502 190.702 59.7786C190.669 59.6875 190.622 59.6207 190.56 59.5784C190.499 59.5361 190.39 59.5068 190.233 59.4905V59.3099H192.099ZM195.746 57.0979C195.958 57.0979 196.137 57.1728 196.283 57.3225C196.43 57.469 196.503 57.6464 196.503 57.8548C196.503 58.0631 196.428 58.2405 196.278 58.387C196.132 58.5335 195.954 58.6067 195.746 58.6067C195.538 58.6067 195.36 58.5335 195.214 58.387C195.067 58.2405 194.994 58.0631 194.994 57.8548C194.994 57.6464 195.067 57.469 195.214 57.3225C195.36 57.1728 195.538 57.0979 195.746 57.0979ZM196.43 59.3099V62.928C196.43 63.2503 196.467 63.457 196.542 63.5481C196.617 63.636 196.763 63.6865 196.981 63.6995V63.8753H194.516V63.6995C194.717 63.693 194.867 63.6344 194.965 63.5237C195.03 63.4488 195.062 63.2503 195.062 62.928V60.262C195.062 59.9397 195.025 59.7347 194.95 59.6468C194.875 59.5556 194.73 59.5035 194.516 59.4905V59.3099H196.43ZM199.242 57.6399V59.3099H200.326V59.7933H199.242V62.6106C199.242 62.8743 199.253 63.0452 199.276 63.1233C199.302 63.1982 199.346 63.26 199.408 63.3089C199.47 63.3544 199.527 63.3772 199.579 63.3772C199.791 63.3772 199.991 63.2161 200.18 62.8938L200.326 63.0013C200.062 63.6263 199.634 63.9388 199.042 63.9388C198.752 63.9388 198.506 63.859 198.305 63.6995C198.106 63.5367 197.979 63.3561 197.924 63.1575C197.891 63.0468 197.875 62.7474 197.875 62.2591V59.7933H197.279V59.6224C197.689 59.3326 198.038 59.0283 198.324 58.7093C198.614 58.3903 198.866 58.0338 199.081 57.6399H199.242ZM201.859 57.0979C202.071 57.0979 202.25 57.1728 202.396 57.3225C202.543 57.469 202.616 57.6464 202.616 57.8548C202.616 58.0631 202.541 58.2405 202.391 58.387C202.245 58.5335 202.068 58.6067 201.859 58.6067C201.651 58.6067 201.474 58.5335 201.327 58.387C201.181 58.2405 201.107 58.0631 201.107 57.8548C201.107 57.6464 201.181 57.469 201.327 57.3225C201.474 57.1728 201.651 57.0979 201.859 57.0979ZM202.543 59.3099V62.928C202.543 63.2503 202.58 63.457 202.655 63.5481C202.73 63.636 202.877 63.6865 203.095 63.6995V63.8753H200.629V63.6995C200.831 63.693 200.98 63.6344 201.078 63.5237C201.143 63.4488 201.176 63.2503 201.176 62.928V60.262C201.176 59.9397 201.138 59.7347 201.063 59.6468C200.988 59.5556 200.844 59.5035 200.629 59.4905V59.3099H202.543ZM205.409 59.3099V59.9007C205.643 59.6468 205.868 59.4628 206.083 59.3489C206.298 59.2317 206.529 59.1731 206.776 59.1731C207.072 59.1731 207.318 59.2561 207.514 59.4222C207.709 59.5849 207.839 59.7884 207.904 60.0325C207.956 60.2181 207.982 60.5745 207.982 61.1018V62.8792C207.982 63.2308 208.013 63.4505 208.075 63.5384C208.14 63.623 208.274 63.6767 208.475 63.6995V63.8753H206.166V63.6995C206.338 63.6767 206.462 63.6051 206.537 63.4847C206.589 63.4033 206.615 63.2015 206.615 62.8792V60.8479C206.615 60.4736 206.6 60.2376 206.571 60.1399C206.542 60.0423 206.491 59.9674 206.42 59.9153C206.351 59.86 206.275 59.8323 206.19 59.8323C205.91 59.8323 205.65 60.0325 205.409 60.4329V62.8792C205.409 63.221 205.44 63.4375 205.502 63.5286C205.567 63.6197 205.686 63.6767 205.858 63.6995V63.8753H203.549V63.6995C203.741 63.68 203.877 63.6181 203.959 63.514C204.014 63.4423 204.042 63.2308 204.042 62.8792V60.3011C204.042 59.956 204.009 59.7412 203.944 59.6565C203.882 59.5719 203.751 59.5166 203.549 59.4905V59.3099H205.409ZM212.04 59.3636H213.578V59.9007H212.704C212.863 60.0602 212.974 60.205 213.036 60.3352C213.114 60.511 213.153 60.6949 213.153 60.887C213.153 61.2125 213.062 61.4957 212.88 61.7366C212.701 61.9742 212.455 62.1614 212.142 62.2981C211.833 62.4316 211.558 62.4983 211.317 62.4983C211.298 62.4983 211.102 62.4902 210.731 62.4739C210.585 62.4739 210.461 62.5227 210.36 62.6204C210.263 62.7148 210.214 62.8287 210.214 62.9622C210.214 63.0794 210.258 63.1754 210.346 63.2503C210.437 63.3252 210.583 63.3626 210.785 63.3626L211.63 63.3528C212.313 63.3528 212.784 63.4277 213.041 63.5774C213.409 63.7858 213.593 64.1064 213.593 64.5393C213.593 64.816 213.508 65.0667 213.339 65.2913C213.169 65.5192 212.946 65.6868 212.67 65.7942C212.25 65.9537 211.766 66.0335 211.22 66.0335C210.809 66.0335 210.435 65.9928 210.097 65.9114C209.758 65.8333 209.516 65.7226 209.369 65.5794C209.223 65.4394 209.149 65.2913 209.149 65.135C209.149 64.9853 209.205 64.8502 209.315 64.7298C209.429 64.6126 209.639 64.5133 209.945 64.4319C209.522 64.2236 209.31 63.9339 209.31 63.5628C209.31 63.3382 209.397 63.1201 209.569 62.9085C209.742 62.6969 210.015 62.513 210.39 62.3567C209.953 62.1972 209.638 61.9873 209.442 61.7268C209.247 61.4664 209.149 61.1653 209.149 60.8235C209.149 60.3776 209.332 59.9918 209.696 59.6663C210.061 59.3375 210.53 59.1731 211.102 59.1731C211.405 59.1731 211.718 59.2366 212.04 59.3636ZM211.195 59.4759C211.006 59.4759 210.847 59.5719 210.717 59.764C210.586 59.9528 210.521 60.3466 210.521 60.9456C210.521 61.4306 210.585 61.7643 210.712 61.9466C210.842 62.1256 210.995 62.2151 211.171 62.2151C211.366 62.2151 211.529 62.1256 211.659 61.9466C211.789 61.7675 211.854 61.4192 211.854 60.9016C211.854 60.319 211.781 59.9218 211.635 59.7102C211.53 59.554 211.384 59.4759 211.195 59.4759ZM210.907 64.5491C210.575 64.5491 210.355 64.5768 210.248 64.6321C210.062 64.733 209.97 64.8697 209.97 65.0423C209.97 65.2083 210.066 65.358 210.258 65.4915C210.45 65.6282 210.811 65.6966 211.342 65.6966C211.794 65.6966 212.149 65.6363 212.406 65.5159C212.667 65.3955 212.797 65.2262 212.797 65.0081C212.797 64.9267 212.772 64.8584 212.724 64.803C212.636 64.7054 212.502 64.6386 212.323 64.6028C212.147 64.567 211.675 64.5491 210.907 64.5491ZM214.345 60.3645V60.1204C214.68 59.9967 214.944 59.803 215.136 59.5393C215.328 59.2724 215.424 58.9957 215.424 58.7093C215.424 58.6474 215.414 58.6018 215.394 58.5725C215.385 58.553 215.372 58.5433 215.355 58.5433C215.339 58.5433 215.313 58.5563 215.277 58.5823C215.173 58.6572 215.043 58.6946 214.887 58.6946C214.698 58.6946 214.532 58.6197 214.389 58.47C214.249 58.317 214.179 58.1363 214.179 57.928C214.179 57.7067 214.26 57.5146 214.423 57.3518C214.585 57.1858 214.786 57.1028 215.023 57.1028C215.293 57.1028 215.528 57.2151 215.726 57.4397C215.928 57.6611 216.029 57.9606 216.029 58.3382C216.029 58.7776 215.894 59.1715 215.624 59.5198C215.354 59.8681 214.927 60.1497 214.345 60.3645ZM216.693 60.3645V60.1204C217.029 59.9967 217.292 59.803 217.484 59.5393C217.676 59.2724 217.772 58.9957 217.772 58.7093C217.772 58.6474 217.763 58.6018 217.743 58.5725C217.733 58.553 217.72 58.5433 217.704 58.5433C217.688 58.5433 217.662 58.5563 217.626 58.5823C217.522 58.6572 217.391 58.6946 217.235 58.6946C217.046 58.6946 216.88 58.6197 216.737 58.47C216.597 58.317 216.527 58.1363 216.527 57.928C216.527 57.7067 216.609 57.5146 216.771 57.3518C216.934 57.1858 217.134 57.1028 217.372 57.1028C217.642 57.1028 217.877 57.2151 218.075 57.4397C218.277 57.6611 218.378 57.9606 218.378 58.3382C218.378 58.7776 218.243 59.1715 217.973 59.5198C217.702 59.8681 217.276 60.1497 216.693 60.3645Z" fill="#3E4095"/>
<path d="M124.812 1.64645V5.68942H125.01C125.64 5.68942 126.097 5.49167 126.38 5.09616C126.663 4.70065 126.844 4.11715 126.922 3.34567H127.2V8.54587H126.922C126.863 7.97946 126.739 7.51559 126.548 7.15426C126.363 6.79294 126.146 6.55124 125.896 6.42917C125.647 6.30221 125.286 6.23874 124.812 6.23874V9.03659C124.812 9.58346 124.834 9.91794 124.878 10.04C124.927 10.1621 125.015 10.2622 125.142 10.3403C125.269 10.4184 125.474 10.4575 125.757 10.4575H126.351C127.278 10.4575 128.021 10.2426 128.577 9.81295C129.139 9.38327 129.542 8.72897 129.786 7.85006H130.057L129.61 11.0068H121.026V10.7358H121.355C121.644 10.7358 121.875 10.6845 122.051 10.582C122.178 10.5136 122.276 10.3965 122.344 10.2304C122.398 10.1132 122.425 9.80563 122.425 9.30758V2.77438C122.425 2.32516 122.413 2.04928 122.388 1.94674C122.339 1.77585 122.249 1.64401 122.117 1.55124C121.932 1.41452 121.678 1.34616 121.355 1.34616H121.026V1.07516H129.339V4.01217H129.061C128.919 3.2944 128.719 2.77926 128.46 2.46676C128.206 2.15426 127.845 1.92477 127.376 1.77829C127.103 1.6904 126.59 1.64645 125.838 1.64645H124.812ZM134.034 4.15866V5.04489C134.385 4.66403 134.722 4.38815 135.044 4.21725C135.367 4.04147 135.713 3.95358 136.084 3.95358C136.529 3.95358 136.897 4.07809 137.19 4.32712C137.483 4.57126 137.679 4.87643 137.776 5.24264C137.854 5.52096 137.894 6.05563 137.894 6.84665V9.51266C137.894 10.04 137.94 10.3696 138.033 10.5014C138.13 10.6284 138.331 10.709 138.633 10.7431V11.0068H135.169V10.7431C135.428 10.709 135.613 10.6015 135.726 10.4209C135.804 10.2988 135.843 9.99606 135.843 9.51266V6.46579C135.843 5.90426 135.821 5.55026 135.777 5.40378C135.733 5.25729 135.657 5.14499 135.55 5.06686C135.447 4.98385 135.333 4.94235 135.206 4.94235C134.786 4.94235 134.395 5.24264 134.034 5.84323V9.51266C134.034 10.0254 134.08 10.3501 134.173 10.4868C134.271 10.6235 134.449 10.709 134.708 10.7431V11.0068H131.243V10.7431C131.531 10.7138 131.736 10.6211 131.858 10.4648C131.941 10.3574 131.983 10.04 131.983 9.51266V5.64547C131.983 5.1279 131.934 4.80563 131.836 4.67868C131.744 4.55172 131.546 4.46872 131.243 4.42965V4.15866H134.034ZM143.98 4.23922H146.287V5.04489H144.976C145.215 5.28415 145.381 5.50143 145.474 5.69674C145.591 5.96042 145.65 6.23629 145.65 6.52438C145.65 7.01266 145.513 7.43747 145.24 7.79879C144.971 8.15524 144.603 8.436 144.134 8.64108C143.67 8.84128 143.257 8.94137 142.896 8.94137C142.867 8.94137 142.574 8.92917 142.017 8.90475C141.797 8.90475 141.612 8.97799 141.46 9.12448C141.314 9.26608 141.241 9.43698 141.241 9.63717C141.241 9.81295 141.307 9.957 141.438 10.0693C141.575 10.1816 141.795 10.2378 142.098 10.2378L143.365 10.2231C144.39 10.2231 145.096 10.3354 145.481 10.56C146.033 10.8725 146.309 11.3535 146.309 12.0029C146.309 12.4179 146.182 12.7939 145.928 13.1308C145.674 13.4726 145.34 13.7241 144.925 13.8852C144.295 14.1245 143.57 14.2441 142.75 14.2441C142.134 14.2441 141.573 14.1831 141.065 14.061C140.557 13.9438 140.193 13.7778 139.974 13.563C139.754 13.353 139.644 13.1308 139.644 12.8965C139.644 12.6718 139.727 12.4692 139.893 12.2885C140.064 12.1128 140.379 11.9638 140.838 11.8418C140.203 11.5293 139.886 11.0947 139.886 10.5381C139.886 10.2011 140.015 9.87399 140.274 9.55661C140.533 9.23922 140.943 8.96335 141.504 8.72897C140.85 8.48971 140.376 8.17477 140.083 7.78415C139.791 7.39352 139.644 6.94186 139.644 6.42917C139.644 5.76022 139.917 5.18161 140.464 4.69333C141.011 4.20016 141.714 3.95358 142.574 3.95358C143.028 3.95358 143.497 4.04879 143.98 4.23922ZM142.713 4.40768C142.43 4.40768 142.19 4.55172 141.995 4.83981C141.8 5.12301 141.702 5.71383 141.702 6.61227C141.702 7.33981 141.797 7.8403 141.988 8.11374C142.183 8.38229 142.413 8.51657 142.676 8.51657C142.969 8.51657 143.213 8.38229 143.409 8.11374C143.604 7.84518 143.702 7.32272 143.702 6.54635C143.702 5.67233 143.592 5.07663 143.372 4.75924C143.216 4.52487 142.996 4.40768 142.713 4.40768ZM142.281 12.0175C141.783 12.0175 141.453 12.059 141.292 12.1421C141.014 12.2934 140.875 12.4985 140.875 12.7573C140.875 13.0063 141.019 13.2309 141.307 13.4311C141.595 13.6362 142.137 13.7387 142.933 13.7387C143.611 13.7387 144.144 13.6484 144.529 13.4677C144.92 13.2871 145.115 13.0332 145.115 12.706C145.115 12.584 145.079 12.4814 145.005 12.3984C144.874 12.2519 144.673 12.1518 144.405 12.0981C144.141 12.0444 143.433 12.0175 142.281 12.0175ZM149.766 1.07516V9.5859C149.766 10.0693 149.822 10.3794 149.935 10.5161C150.047 10.6479 150.267 10.7236 150.594 10.7431V11.0068H146.895V10.7431C147.198 10.7334 147.422 10.6455 147.569 10.4795C147.667 10.3672 147.715 10.0693 147.715 9.5859V2.49606C147.715 2.01754 147.659 1.71237 147.547 1.58053C147.435 1.44381 147.217 1.36569 146.895 1.34616V1.07516H149.766ZM152.908 0.840787C153.226 0.840787 153.494 0.953092 153.714 1.1777C153.934 1.39743 154.043 1.66354 154.043 1.97604C154.043 2.28854 153.931 2.55465 153.707 2.77438C153.487 2.99411 153.221 3.10397 152.908 3.10397C152.596 3.10397 152.33 2.99411 152.11 2.77438C151.89 2.55465 151.78 2.28854 151.78 1.97604C151.78 1.66354 151.89 1.39743 152.11 1.1777C152.33 0.953092 152.596 0.840787 152.908 0.840787ZM153.934 4.15866V9.5859C153.934 10.0693 153.99 10.3794 154.102 10.5161C154.214 10.6479 154.434 10.7236 154.761 10.7431V11.0068H151.062V10.7431C151.365 10.7334 151.59 10.6455 151.736 10.4795C151.834 10.3672 151.883 10.0693 151.883 9.5859V5.58688C151.883 5.10348 151.827 4.79587 151.714 4.66403C151.602 4.52731 151.385 4.44919 151.062 4.42965V4.15866H153.934ZM159.764 3.96823L159.874 6.30465H159.625C159.327 5.61129 159.017 5.13766 158.694 4.88376C158.377 4.62985 158.06 4.5029 157.742 4.5029C157.542 4.5029 157.371 4.57126 157.229 4.70797C157.088 4.83981 157.017 4.99362 157.017 5.1694C157.017 5.30124 157.066 5.42819 157.164 5.55026C157.32 5.75045 157.757 6.09469 158.475 6.58297C159.192 7.06637 159.664 7.47897 159.888 7.82077C160.118 8.15768 160.232 8.5361 160.232 8.95602C160.232 9.33688 160.137 9.71042 159.947 10.0766C159.756 10.4428 159.488 10.7236 159.141 10.9189C158.794 11.1142 158.411 11.2119 157.991 11.2119C157.664 11.2119 157.227 11.1093 156.68 10.9043C156.534 10.8506 156.434 10.8237 156.38 10.8237C156.219 10.8237 156.084 10.9458 155.977 11.1899H155.735L155.618 8.72897H155.867C156.087 9.3735 156.387 9.8569 156.768 10.1792C157.154 10.5014 157.518 10.6626 157.859 10.6626C158.094 10.6626 158.284 10.5918 158.431 10.4502C158.582 10.3037 158.658 10.1279 158.658 9.92282C158.658 9.68844 158.584 9.48581 158.438 9.31491C158.292 9.14401 157.964 8.88522 157.457 8.53854C156.709 8.02096 156.226 7.62545 156.006 7.35202C155.684 6.95163 155.523 6.50973 155.523 6.02633C155.523 5.49899 155.704 5.02292 156.065 4.59811C156.431 4.16842 156.958 3.95358 157.647 3.95358C158.018 3.95358 158.377 4.04391 158.724 4.22458C158.855 4.29782 158.963 4.33444 159.046 4.33444C159.134 4.33444 159.205 4.31735 159.258 4.28317C159.312 4.24411 159.397 4.13913 159.515 3.96823H159.764ZM164.078 1.07516V5.03756C164.454 4.64206 164.798 4.36374 165.11 4.2026C165.423 4.03659 165.748 3.95358 166.084 3.95358C166.514 3.95358 166.88 4.07565 167.183 4.31979C167.491 4.56393 167.693 4.85202 167.791 5.18405C167.894 5.5112 167.945 6.0654 167.945 6.84665V9.51999C167.945 10.0424 167.994 10.3696 168.091 10.5014C168.189 10.6284 168.387 10.709 168.685 10.7431V11.0068H165.213V10.7431C165.457 10.709 165.64 10.6113 165.762 10.4502C165.85 10.3232 165.894 10.0132 165.894 9.51999V6.46579C165.894 5.89938 165.872 5.54538 165.828 5.40378C165.784 5.25729 165.708 5.14499 165.601 5.06686C165.499 4.98385 165.381 4.94235 165.25 4.94235C165.054 4.94235 164.864 5.01071 164.678 5.14743C164.493 5.27926 164.292 5.51364 164.078 5.85055V9.51999C164.078 10.0083 164.114 10.3134 164.188 10.4355C164.28 10.6015 164.471 10.7041 164.759 10.7431V11.0068H161.287V10.7431C161.575 10.7138 161.78 10.6211 161.902 10.4648C161.985 10.3574 162.027 10.0424 162.027 9.51999V2.56198C162.027 2.0444 161.978 1.72213 161.88 1.59518C161.788 1.46823 161.59 1.38522 161.287 1.34616V1.07516H164.078ZM130.196 24.5205L129.822 28.0068H121.004V27.7358H121.333C121.622 27.7358 121.854 27.6845 122.029 27.582C122.156 27.5136 122.254 27.3965 122.322 27.2304C122.376 27.1132 122.403 26.8056 122.403 26.3076V19.7744C122.403 19.2666 122.376 18.9492 122.322 18.8222C122.269 18.6953 122.159 18.5854 121.993 18.4926C121.832 18.395 121.612 18.3462 121.333 18.3462H121.004V18.0752H126.299V18.3462H125.867C125.579 18.3462 125.347 18.3974 125.171 18.5C125.044 18.5683 124.944 18.6855 124.871 18.8515C124.817 18.9687 124.791 19.2763 124.791 19.7744V26.1025C124.791 26.6103 124.82 26.935 124.878 27.0766C124.937 27.2133 125.052 27.3159 125.223 27.3842C125.345 27.4282 125.64 27.4502 126.109 27.4502H126.937C127.464 27.4502 127.903 27.3574 128.255 27.1718C128.606 26.9863 128.909 26.6933 129.163 26.2929C129.422 25.8925 129.666 25.3017 129.896 24.5205H130.196ZM135.015 26.9961C134.18 27.7334 133.431 28.102 132.767 28.102C132.376 28.102 132.051 27.9751 131.792 27.7212C131.534 27.4624 131.404 27.1401 131.404 26.7544C131.404 26.2319 131.629 25.7632 132.078 25.3481C132.527 24.9282 133.506 24.3715 135.015 23.6782V22.9897C135.015 22.4721 134.986 22.1474 134.927 22.0156C134.874 21.8789 134.769 21.7617 134.612 21.664C134.456 21.5615 134.28 21.5102 134.085 21.5102C133.768 21.5102 133.506 21.581 133.301 21.7226C133.174 21.8105 133.111 21.9131 133.111 22.0302C133.111 22.1328 133.179 22.2597 133.316 22.4111C133.501 22.6211 133.594 22.8237 133.594 23.019C133.594 23.2583 133.504 23.4633 133.323 23.6342C133.147 23.8003 132.916 23.8833 132.627 23.8833C132.32 23.8833 132.061 23.7905 131.851 23.6049C131.646 23.4194 131.543 23.2021 131.543 22.9531C131.543 22.6015 131.683 22.2671 131.961 21.9497C132.239 21.6274 132.627 21.3808 133.125 21.2099C133.624 21.039 134.141 20.9536 134.678 20.9536C135.328 20.9536 135.84 21.0927 136.216 21.3711C136.597 21.6445 136.844 21.9423 136.956 22.2646C137.024 22.4697 137.059 22.9409 137.059 23.6782V26.3369C137.059 26.6494 137.071 26.8471 137.095 26.9301C137.12 27.0083 137.156 27.0669 137.205 27.1059C137.254 27.145 137.31 27.1645 137.374 27.1645C137.5 27.1645 137.63 27.0742 137.762 26.8935L137.981 27.0693C137.737 27.4306 137.483 27.6943 137.22 27.8603C136.961 28.0215 136.666 28.102 136.333 28.102C135.943 28.102 135.638 28.0117 135.418 27.831C135.198 27.6455 135.064 27.3672 135.015 26.9961ZM135.015 26.4614V24.1689C134.424 24.5156 133.985 24.8867 133.697 25.2822C133.506 25.5459 133.411 25.812 133.411 26.0805C133.411 26.3051 133.492 26.5029 133.653 26.6738C133.775 26.8056 133.946 26.8715 134.166 26.8715C134.41 26.8715 134.693 26.7348 135.015 26.4614ZM141.534 21.1587V22.0449C141.885 21.664 142.222 21.3882 142.544 21.2173C142.867 21.0415 143.213 20.9536 143.584 20.9536C144.029 20.9536 144.397 21.0781 144.69 21.3271C144.983 21.5713 145.179 21.8764 145.276 22.2426C145.354 22.521 145.394 23.0556 145.394 23.8466V26.5127C145.394 27.04 145.44 27.3696 145.533 27.5014C145.63 27.6284 145.831 27.709 146.133 27.7431V28.0068H142.669V27.7431C142.928 27.709 143.113 27.6015 143.226 27.4209C143.304 27.2988 143.343 26.9961 143.343 26.5127V23.4658C143.343 22.9043 143.321 22.5503 143.277 22.4038C143.233 22.2573 143.157 22.145 143.05 22.0669C142.947 21.9839 142.833 21.9423 142.706 21.9423C142.286 21.9423 141.895 22.2426 141.534 22.8432V26.5127C141.534 27.0254 141.58 27.3501 141.673 27.4868C141.771 27.6235 141.949 27.709 142.208 27.7431V28.0068H138.743V27.7431C139.031 27.7138 139.236 27.6211 139.358 27.4648C139.441 27.3574 139.483 27.04 139.483 26.5127V22.6455C139.483 22.1279 139.434 21.8056 139.336 21.6787C139.244 21.5517 139.046 21.4687 138.743 21.4297V21.1587H141.534ZM151.48 21.2392H153.787V22.0449H152.476C152.715 22.2841 152.881 22.5014 152.974 22.6967C153.091 22.9604 153.15 23.2363 153.15 23.5244C153.15 24.0127 153.013 24.4375 152.74 24.7988C152.471 25.1552 152.103 25.436 151.634 25.6411C151.17 25.8413 150.757 25.9414 150.396 25.9414C150.367 25.9414 150.074 25.9292 149.517 25.9048C149.297 25.9048 149.112 25.978 148.96 26.1245C148.814 26.2661 148.741 26.437 148.741 26.6372C148.741 26.813 148.807 26.957 148.938 27.0693C149.075 27.1816 149.295 27.2378 149.598 27.2378L150.865 27.2231C151.89 27.2231 152.596 27.3354 152.981 27.56C153.533 27.8725 153.809 28.3535 153.809 29.0029C153.809 29.4179 153.682 29.7939 153.428 30.1308C153.174 30.4726 152.84 30.7241 152.425 30.8852C151.795 31.1245 151.07 31.2441 150.25 31.2441C149.634 31.2441 149.073 31.1831 148.565 31.061C148.057 30.9438 147.693 30.7778 147.474 30.563C147.254 30.353 147.144 30.1308 147.144 29.8965C147.144 29.6718 147.227 29.4692 147.393 29.2885C147.564 29.1128 147.879 28.9638 148.338 28.8418C147.703 28.5293 147.386 28.0947 147.386 27.5381C147.386 27.2011 147.515 26.874 147.774 26.5566C148.033 26.2392 148.443 25.9633 149.004 25.729C148.35 25.4897 147.876 25.1748 147.583 24.7841C147.291 24.3935 147.144 23.9419 147.144 23.4292C147.144 22.7602 147.417 22.1816 147.964 21.6933C148.511 21.2002 149.214 20.9536 150.074 20.9536C150.528 20.9536 150.997 21.0488 151.48 21.2392ZM150.213 21.4077C149.93 21.4077 149.69 21.5517 149.495 21.8398C149.3 22.123 149.202 22.7138 149.202 23.6123C149.202 24.3398 149.297 24.8403 149.488 25.1137C149.683 25.3823 149.913 25.5166 150.176 25.5166C150.469 25.5166 150.713 25.3823 150.909 25.1137C151.104 24.8452 151.202 24.3227 151.202 23.5464C151.202 22.6723 151.092 22.0766 150.872 21.7592C150.716 21.5249 150.496 21.4077 150.213 21.4077ZM149.781 29.0175C149.283 29.0175 148.953 29.059 148.792 29.1421C148.514 29.2934 148.375 29.4985 148.375 29.7573C148.375 30.0063 148.519 30.2309 148.807 30.4311C149.095 30.6362 149.637 30.7387 150.433 30.7387C151.111 30.7387 151.644 30.6484 152.029 30.4677C152.42 30.2871 152.615 30.0332 152.615 29.706C152.615 29.584 152.579 29.4814 152.505 29.3984C152.374 29.2519 152.173 29.1518 151.905 29.0981C151.641 29.0444 150.933 29.0175 149.781 29.0175ZM161.199 21.1587V26.52C161.199 27.0424 161.248 27.3696 161.346 27.5014C161.443 27.6284 161.641 27.709 161.939 27.7431V28.0068H159.148V27.0913C158.821 27.4819 158.494 27.7675 158.167 27.9482C157.84 28.124 157.474 28.2119 157.068 28.2119C156.683 28.2119 156.338 28.0947 156.036 27.8603C155.738 27.6211 155.538 27.3427 155.435 27.0254C155.333 26.708 155.281 26.1538 155.281 25.3628V22.6455C155.281 22.1279 155.232 21.8056 155.135 21.6787C155.042 21.5517 154.844 21.4687 154.542 21.4297V21.1587H157.332V25.8388C157.332 26.3271 157.354 26.6421 157.398 26.7837C157.447 26.9253 157.52 27.0327 157.618 27.1059C157.72 27.1792 157.837 27.2158 157.969 27.2158C158.145 27.2158 158.304 27.1694 158.445 27.0766C158.641 26.9497 158.875 26.6933 159.148 26.3076V22.6455C159.148 22.1279 159.1 21.8056 159.002 21.6787C158.909 21.5517 158.711 21.4687 158.409 21.4297V21.1587H161.199ZM166.714 26.9961C165.879 27.7334 165.13 28.102 164.466 28.102C164.075 28.102 163.75 27.9751 163.492 27.7212C163.233 27.4624 163.104 27.1401 163.104 26.7544C163.104 26.2319 163.328 25.7632 163.777 25.3481C164.227 24.9282 165.206 24.3715 166.714 23.6782V22.9897C166.714 22.4721 166.685 22.1474 166.626 22.0156C166.573 21.8789 166.468 21.7617 166.312 21.664C166.155 21.5615 165.979 21.5102 165.784 21.5102C165.467 21.5102 165.206 21.581 165 21.7226C164.874 21.8105 164.81 21.9131 164.81 22.0302C164.81 22.1328 164.878 22.2597 165.015 22.4111C165.201 22.6211 165.293 22.8237 165.293 23.019C165.293 23.2583 165.203 23.4633 165.022 23.6342C164.847 23.8003 164.615 23.8833 164.327 23.8833C164.019 23.8833 163.76 23.7905 163.55 23.6049C163.345 23.4194 163.243 23.2021 163.243 22.9531C163.243 22.6015 163.382 22.2671 163.66 21.9497C163.938 21.6274 164.327 21.3808 164.825 21.2099C165.323 21.039 165.84 20.9536 166.377 20.9536C167.027 20.9536 167.54 21.0927 167.916 21.3711C168.296 21.6445 168.543 21.9423 168.655 22.2646C168.724 22.4697 168.758 22.9409 168.758 23.6782V26.3369C168.758 26.6494 168.77 26.8471 168.794 26.9301C168.819 27.0083 168.855 27.0669 168.904 27.1059C168.953 27.145 169.009 27.1645 169.073 27.1645C169.2 27.1645 169.329 27.0742 169.461 26.8935L169.681 27.0693C169.437 27.4306 169.183 27.6943 168.919 27.8603C168.66 28.0215 168.365 28.102 168.033 28.102C167.642 28.102 167.337 28.0117 167.117 27.831C166.897 27.6455 166.763 27.3672 166.714 26.9961ZM166.714 26.4614V24.1689C166.124 24.5156 165.684 24.8867 165.396 25.2822C165.206 25.5459 165.11 25.812 165.11 26.0805C165.11 26.3051 165.191 26.5029 165.352 26.6738C165.474 26.8056 165.645 26.8715 165.865 26.8715C166.109 26.8715 166.392 26.7348 166.714 26.4614ZM174.83 21.2392H177.137V22.0449H175.826C176.065 22.2841 176.231 22.5014 176.324 22.6967C176.441 22.9604 176.5 23.2363 176.5 23.5244C176.5 24.0127 176.363 24.4375 176.089 24.7988C175.821 25.1552 175.452 25.436 174.983 25.6411C174.52 25.8413 174.107 25.9414 173.746 25.9414C173.716 25.9414 173.423 25.9292 172.867 25.9048C172.647 25.9048 172.461 25.978 172.31 26.1245C172.164 26.2661 172.09 26.437 172.09 26.6372C172.09 26.813 172.156 26.957 172.288 27.0693C172.425 27.1816 172.645 27.2378 172.947 27.2378L174.214 27.2231C175.24 27.2231 175.945 27.3354 176.331 27.56C176.883 27.8725 177.159 28.3535 177.159 29.0029C177.159 29.4179 177.032 29.7939 176.778 30.1308C176.524 30.4726 176.189 30.7241 175.774 30.8852C175.145 31.1245 174.419 31.2441 173.599 31.2441C172.984 31.2441 172.422 31.1831 171.915 31.061C171.407 30.9438 171.043 30.7778 170.823 30.563C170.604 30.353 170.494 30.1308 170.494 29.8965C170.494 29.6718 170.577 29.4692 170.743 29.2885C170.914 29.1128 171.229 28.9638 171.688 28.8418C171.053 28.5293 170.735 28.0947 170.735 27.5381C170.735 27.2011 170.865 26.874 171.124 26.5566C171.382 26.2392 171.792 25.9633 172.354 25.729C171.7 25.4897 171.226 25.1748 170.933 24.7841C170.64 24.3935 170.494 23.9419 170.494 23.4292C170.494 22.7602 170.767 22.1816 171.314 21.6933C171.861 21.2002 172.564 20.9536 173.423 20.9536C173.877 20.9536 174.346 21.0488 174.83 21.2392ZM173.562 21.4077C173.279 21.4077 173.04 21.5517 172.845 21.8398C172.649 22.123 172.552 22.7138 172.552 23.6123C172.552 24.3398 172.647 24.8403 172.837 25.1137C173.033 25.3823 173.262 25.5166 173.526 25.5166C173.819 25.5166 174.063 25.3823 174.258 25.1137C174.454 24.8452 174.551 24.3227 174.551 23.5464C174.551 22.6723 174.441 22.0766 174.222 21.7592C174.065 21.5249 173.846 21.4077 173.562 21.4077ZM173.13 29.0175C172.632 29.0175 172.303 29.059 172.142 29.1421C171.863 29.2934 171.724 29.4985 171.724 29.7573C171.724 30.0063 171.868 30.2309 172.156 30.4311C172.444 30.6362 172.986 30.7387 173.782 30.7387C174.461 30.7387 174.993 30.6484 175.379 30.4677C175.77 30.2871 175.965 30.0332 175.965 29.706C175.965 29.584 175.928 29.4814 175.855 29.3984C175.723 29.2519 175.523 29.1518 175.254 29.0981C174.991 29.0444 174.283 29.0175 173.13 29.0175ZM183.736 24.3374H179.979C180.022 25.2456 180.264 25.9633 180.704 26.4907C181.041 26.896 181.446 27.0986 181.919 27.0986C182.212 27.0986 182.479 27.018 182.718 26.8569C182.957 26.6909 183.213 26.3955 183.487 25.9707L183.736 26.1318C183.365 26.8886 182.955 27.4257 182.505 27.7431C182.056 28.0556 181.536 28.2119 180.945 28.2119C179.93 28.2119 179.161 27.8213 178.638 27.04C178.218 26.4101 178.008 25.6289 178.008 24.6963C178.008 23.5537 178.316 22.6455 178.931 21.9716C179.551 21.2929 180.276 20.9536 181.106 20.9536C181.8 20.9536 182.4 21.2392 182.908 21.8105C183.421 22.3769 183.697 23.2192 183.736 24.3374ZM181.934 23.8466C181.934 23.0605 181.89 22.521 181.802 22.228C181.719 21.935 181.587 21.7129 181.407 21.5615C181.304 21.4736 181.167 21.4297 180.997 21.4297C180.743 21.4297 180.535 21.5542 180.374 21.8032C180.086 22.2378 179.942 22.8335 179.942 23.5903V23.8466H181.934ZM196.385 22.0669H199.432V22.3525C199.09 22.4013 198.821 22.5039 198.626 22.6601C198.431 22.8115 198.177 23.1679 197.864 23.7295C197.552 24.291 197.112 24.9184 196.546 25.6118C197.044 26.061 197.449 26.3735 197.762 26.5493C197.981 26.6714 198.196 26.7324 198.406 26.7324C198.768 26.7324 199.095 26.4956 199.388 26.0219L199.688 26.1831C199.288 26.9692 198.86 27.5283 198.406 27.8603C198.06 28.1093 197.664 28.2339 197.22 28.2339C196.839 28.2339 196.475 28.1533 196.128 27.9922C195.787 27.8261 195.369 27.5185 194.876 27.0693C194.266 27.4795 193.692 27.7773 193.155 27.9629C192.618 28.1435 192.059 28.2339 191.478 28.2339C190.55 28.2339 189.812 27.9824 189.266 27.4795C188.719 26.9765 188.445 26.3857 188.445 25.707C188.445 24.9746 188.707 24.3374 189.229 23.7954C189.751 23.2534 190.511 22.7846 191.507 22.3891C191.38 22.0717 191.285 21.7617 191.221 21.459C191.158 21.1562 191.126 20.8632 191.126 20.58C191.126 19.7988 191.399 19.1494 191.946 18.6318C192.498 18.1093 193.201 17.8481 194.056 17.8481C194.744 17.8481 195.289 18.0215 195.689 18.3681C196.094 18.7099 196.297 19.1103 196.297 19.5693C196.297 20.1211 196.089 20.5947 195.674 20.9902C195.264 21.3808 194.612 21.7397 193.719 22.0669C194.271 23.0385 195.079 24.0859 196.143 25.209C196.861 24.4033 197.22 23.7124 197.22 23.1362C197.22 22.9311 197.149 22.7578 197.007 22.6162C196.866 22.4697 196.658 22.3818 196.385 22.3525V22.0669ZM193.47 21.6274C193.982 21.437 194.327 21.2343 194.502 21.0195C194.678 20.7998 194.766 20.5361 194.766 20.2285C194.766 19.6816 194.622 19.2202 194.334 18.8442C194.144 18.5952 193.909 18.4707 193.631 18.4707C193.401 18.4707 193.204 18.561 193.038 18.7417C192.876 18.9223 192.796 19.1665 192.796 19.4741C192.796 19.7133 192.835 19.9697 192.913 20.2431C192.991 20.5166 193.177 20.978 193.47 21.6274ZM191.712 22.8579C191.321 23.0239 191.045 23.1997 190.884 23.3852C190.655 23.6587 190.54 23.9638 190.54 24.3007C190.54 24.7597 190.672 25.2163 190.936 25.6704C191.204 26.1245 191.526 26.476 191.902 26.7251C192.278 26.9741 192.654 27.0986 193.03 27.0986C193.216 27.0986 193.423 27.0595 193.653 26.9814C193.887 26.8984 194.141 26.7763 194.415 26.6152C193.238 25.4091 192.337 24.1567 191.712 22.8579ZM130.738 34.8481V38.2905H130.452C130.237 37.3921 129.837 36.7036 129.251 36.2251C128.665 35.7465 128.001 35.5073 127.259 35.5073C126.639 35.5073 126.07 35.6855 125.552 36.042C125.035 36.3984 124.656 36.8647 124.417 37.4409C124.109 38.1782 123.956 38.9985 123.956 39.9018C123.956 40.7905 124.068 41.601 124.292 42.3335C124.517 43.061 124.869 43.6128 125.347 43.9887C125.826 44.3598 126.446 44.5454 127.208 44.5454C127.833 44.5454 128.404 44.4087 128.921 44.1352C129.444 43.8618 129.993 43.3906 130.569 42.7216V43.5786C130.013 44.1596 129.432 44.582 128.826 44.8457C128.226 45.1045 127.522 45.2339 126.717 45.2339C125.657 45.2339 124.715 45.0215 123.89 44.5966C123.069 44.1718 122.435 43.5615 121.985 42.7656C121.541 41.9697 121.319 41.1225 121.319 40.2241C121.319 39.2768 121.565 38.3784 122.059 37.5288C122.557 36.6792 123.226 36.02 124.065 35.5512C124.91 35.0825 125.806 34.8481 126.753 34.8481C127.452 34.8481 128.189 34.9995 128.965 35.3022C129.415 35.478 129.7 35.5659 129.822 35.5659C129.979 35.5659 130.113 35.5097 130.225 35.3974C130.342 35.2802 130.418 35.0971 130.452 34.8481H130.738ZM135.301 37.9536C135.896 37.9536 136.451 38.1074 136.963 38.415C137.476 38.7226 137.864 39.1596 138.128 39.726C138.396 40.2924 138.531 40.9126 138.531 41.5864C138.531 42.5581 138.284 43.3711 137.791 44.0254C137.195 44.8164 136.373 45.2119 135.323 45.2119C134.292 45.2119 133.499 44.8506 132.942 44.1279C132.386 43.4052 132.107 42.5678 132.107 41.6157C132.107 40.6342 132.391 39.7798 132.957 39.0522C133.528 38.3198 134.31 37.9536 135.301 37.9536ZM135.33 38.4736C135.081 38.4736 134.866 38.5688 134.686 38.7592C134.51 38.9448 134.393 39.3159 134.334 39.8725C134.28 40.4243 134.253 41.1933 134.253 42.1797C134.253 42.7021 134.288 43.1904 134.356 43.6445C134.41 43.9912 134.524 44.2548 134.7 44.4355C134.876 44.6162 135.076 44.7065 135.301 44.7065C135.521 44.7065 135.704 44.6455 135.85 44.5234C136.041 44.3574 136.167 44.1255 136.231 43.8276C136.329 43.3637 136.377 42.4262 136.377 41.0151C136.377 40.185 136.331 39.6162 136.238 39.3086C136.146 38.9961 136.009 38.769 135.828 38.6274C135.701 38.5249 135.535 38.4736 135.33 38.4736ZM142.413 38.1587V39.0595C142.789 38.6494 143.135 38.3637 143.453 38.2026C143.775 38.0366 144.126 37.9536 144.507 37.9536C144.947 37.9536 145.315 38.0561 145.613 38.2612C145.911 38.4663 146.141 38.7788 146.302 39.1987C146.692 38.7592 147.066 38.4419 147.422 38.2465C147.784 38.0512 148.16 37.9536 148.55 37.9536C149.024 37.9536 149.4 38.0634 149.678 38.2832C149.961 38.498 150.157 38.7739 150.264 39.1108C150.376 39.4428 150.433 39.9751 150.433 40.7075V43.5127C150.433 44.04 150.479 44.3672 150.572 44.4941C150.669 44.6211 150.87 44.7041 151.172 44.7431V45.0068H147.635V44.7431C147.913 44.7187 148.118 44.6113 148.25 44.4209C148.338 44.289 148.382 43.9863 148.382 43.5127V40.5683C148.382 39.958 148.357 39.5698 148.309 39.4038C148.26 39.2378 148.182 39.1157 148.074 39.0376C147.972 38.9546 147.85 38.9131 147.708 38.9131C147.498 38.9131 147.286 38.9912 147.071 39.1474C146.856 39.2988 146.639 39.5283 146.419 39.8359V43.5127C146.419 44.0058 146.46 44.3159 146.543 44.4428C146.656 44.6235 146.871 44.7236 147.188 44.7431V45.0068H143.643V44.7431C143.833 44.7334 143.982 44.687 144.09 44.604C144.202 44.5161 144.275 44.4135 144.31 44.2964C144.349 44.1743 144.368 43.9131 144.368 43.5127V40.5683C144.368 39.9482 144.344 39.56 144.295 39.4038C144.246 39.2475 144.163 39.1255 144.046 39.0376C143.934 38.9497 143.812 38.9057 143.68 38.9057C143.484 38.9057 143.306 38.957 143.145 39.0595C142.916 39.2109 142.671 39.4697 142.413 39.8359V43.5127C142.413 43.9961 142.459 44.3159 142.552 44.4721C142.649 44.6235 142.85 44.7138 143.152 44.7431V45.0068H139.622V44.7431C139.91 44.7138 140.115 44.6211 140.237 44.4648C140.32 44.3574 140.362 44.04 140.362 43.5127V39.6455C140.362 39.1279 140.313 38.8056 140.215 38.6787C140.123 38.5517 139.925 38.4687 139.622 38.4297V38.1587H142.413ZM154.908 38.1587V39.0595C155.284 38.6494 155.63 38.3637 155.948 38.2026C156.27 38.0366 156.622 37.9536 157.002 37.9536C157.442 37.9536 157.811 38.0561 158.108 38.2612C158.406 38.4663 158.636 38.7788 158.797 39.1987C159.188 38.7592 159.561 38.4419 159.917 38.2465C160.279 38.0512 160.655 37.9536 161.045 37.9536C161.519 37.9536 161.895 38.0634 162.173 38.2832C162.457 38.498 162.652 38.7739 162.759 39.1108C162.872 39.4428 162.928 39.9751 162.928 40.7075V43.5127C162.928 44.04 162.974 44.3672 163.067 44.4941C163.165 44.6211 163.365 44.7041 163.667 44.7431V45.0068H160.13V44.7431C160.408 44.7187 160.613 44.6113 160.745 44.4209C160.833 44.289 160.877 43.9863 160.877 43.5127V40.5683C160.877 39.958 160.853 39.5698 160.804 39.4038C160.755 39.2378 160.677 39.1157 160.569 39.0376C160.467 38.9546 160.345 38.9131 160.203 38.9131C159.993 38.9131 159.781 38.9912 159.566 39.1474C159.351 39.2988 159.134 39.5283 158.914 39.8359V43.5127C158.914 44.0058 158.956 44.3159 159.039 44.4428C159.151 44.6235 159.366 44.7236 159.683 44.7431V45.0068H156.138V44.7431C156.329 44.7334 156.478 44.687 156.585 44.604C156.697 44.5161 156.771 44.4135 156.805 44.2964C156.844 44.1743 156.863 43.9131 156.863 43.5127V40.5683C156.863 39.9482 156.839 39.56 156.79 39.4038C156.741 39.2475 156.658 39.1255 156.541 39.0376C156.429 38.9497 156.307 38.9057 156.175 38.9057C155.979 38.9057 155.801 38.957 155.64 39.0595C155.411 39.2109 155.167 39.4697 154.908 39.8359V43.5127C154.908 43.9961 154.954 44.3159 155.047 44.4721C155.145 44.6235 155.345 44.7138 155.647 44.7431V45.0068H152.117V44.7431C152.405 44.7138 152.61 44.6211 152.732 44.4648C152.815 44.3574 152.857 44.04 152.857 43.5127V39.6455C152.857 39.1279 152.808 38.8056 152.71 38.6787C152.618 38.5517 152.42 38.4687 152.117 38.4297V38.1587H154.908ZM171.175 38.1587V43.52C171.175 44.0424 171.224 44.3696 171.321 44.5014C171.419 44.6284 171.617 44.709 171.915 44.7431V45.0068H169.124V44.0913C168.797 44.4819 168.47 44.7675 168.143 44.9482C167.815 45.124 167.449 45.2119 167.044 45.2119C166.658 45.2119 166.314 45.0947 166.011 44.8603C165.713 44.6211 165.513 44.3427 165.411 44.0254C165.308 43.708 165.257 43.1538 165.257 42.3628V39.6455C165.257 39.1279 165.208 38.8056 165.11 38.6787C165.018 38.5517 164.82 38.4687 164.517 38.4297V38.1587H167.308V42.8388C167.308 43.3271 167.33 43.6421 167.374 43.7837C167.422 43.9253 167.496 44.0327 167.593 44.1059C167.696 44.1792 167.813 44.2158 167.945 44.2158C168.121 44.2158 168.279 44.1694 168.421 44.0766C168.616 43.9497 168.851 43.6933 169.124 43.3076V39.6455C169.124 39.1279 169.075 38.8056 168.978 38.6787C168.885 38.5517 168.687 38.4687 168.384 38.4297V38.1587H171.175ZM175.708 38.1587V39.0449C176.06 38.664 176.397 38.3882 176.719 38.2173C177.042 38.0415 177.388 37.9536 177.759 37.9536C178.204 37.9536 178.572 38.0781 178.865 38.3271C179.158 38.5713 179.354 38.8764 179.451 39.2426C179.529 39.521 179.568 40.0556 179.568 40.8466V43.5127C179.568 44.04 179.615 44.3696 179.708 44.5014C179.805 44.6284 180.005 44.709 180.308 44.7431V45.0068H176.844V44.7431C177.103 44.709 177.288 44.6015 177.4 44.4209C177.479 44.2988 177.518 43.9961 177.518 43.5127V40.4658C177.518 39.9043 177.496 39.5503 177.452 39.4038C177.408 39.2573 177.332 39.145 177.225 39.0669C177.122 38.9839 177.007 38.9423 176.88 38.9423C176.46 38.9423 176.07 39.2426 175.708 39.8432V43.5127C175.708 44.0254 175.755 44.3501 175.848 44.4868C175.945 44.6235 176.124 44.709 176.382 44.7431V45.0068H172.918V44.7431C173.206 44.7138 173.411 44.6211 173.533 44.4648C173.616 44.3574 173.658 44.04 173.658 43.5127V39.6455C173.658 39.1279 173.609 38.8056 173.511 38.6787C173.418 38.5517 173.221 38.4687 172.918 38.4297V38.1587H175.708ZM182.908 34.8408C183.226 34.8408 183.494 34.9531 183.714 35.1777C183.934 35.3974 184.043 35.6635 184.043 35.976C184.043 36.2885 183.931 36.5547 183.707 36.7744C183.487 36.9941 183.221 37.104 182.908 37.104C182.596 37.104 182.33 36.9941 182.11 36.7744C181.89 36.5547 181.78 36.2885 181.78 35.976C181.78 35.6635 181.89 35.3974 182.11 35.1777C182.33 34.9531 182.596 34.8408 182.908 34.8408ZM183.934 38.1587V43.5859C183.934 44.0693 183.99 44.3794 184.102 44.5161C184.214 44.6479 184.434 44.7236 184.761 44.7431V45.0068H181.062V44.7431C181.365 44.7334 181.59 44.6455 181.736 44.4795C181.834 44.3672 181.883 44.0693 181.883 43.5859V39.5869C181.883 39.1035 181.827 38.7959 181.714 38.664C181.602 38.5273 181.385 38.4492 181.062 38.4297V38.1587H183.934ZM191.023 43.2417L191.25 43.4174C190.928 44.0229 190.525 44.4746 190.042 44.7724C189.563 45.0654 189.053 45.2119 188.511 45.2119C187.598 45.2119 186.868 44.8676 186.321 44.1792C185.774 43.4907 185.501 42.6631 185.501 41.6963C185.501 40.7636 185.75 39.9433 186.248 39.2353C186.849 38.3808 187.676 37.9536 188.731 37.9536C189.439 37.9536 190 38.1318 190.416 38.4882C190.835 38.8447 191.045 39.2426 191.045 39.6821C191.045 39.9604 190.96 40.1826 190.789 40.3486C190.623 40.5146 190.403 40.5976 190.13 40.5976C189.842 40.5976 189.603 40.5024 189.412 40.312C189.227 40.1215 189.112 39.7822 189.068 39.2939C189.039 38.9863 188.968 38.7715 188.855 38.6494C188.743 38.5273 188.611 38.4663 188.46 38.4663C188.226 38.4663 188.025 38.5908 187.859 38.8398C187.605 39.2158 187.479 39.792 187.479 40.5683C187.479 41.2129 187.581 41.8305 187.786 42.4214C187.991 43.0073 188.272 43.4443 188.628 43.7324C188.897 43.9423 189.214 44.0473 189.581 44.0473C189.82 44.0473 190.047 43.9912 190.262 43.8789C190.477 43.7666 190.73 43.5542 191.023 43.2417ZM195.879 43.9961C195.044 44.7334 194.295 45.102 193.631 45.102C193.24 45.102 192.916 44.9751 192.657 44.7212C192.398 44.4624 192.269 44.1401 192.269 43.7544C192.269 43.2319 192.493 42.7632 192.942 42.3481C193.392 41.9282 194.371 41.3715 195.879 40.6782V39.9897C195.879 39.4721 195.85 39.1474 195.792 39.0156C195.738 38.8789 195.633 38.7617 195.477 38.664C195.32 38.5615 195.145 38.5102 194.949 38.5102C194.632 38.5102 194.371 38.581 194.166 38.7226C194.039 38.8105 193.975 38.9131 193.975 39.0302C193.975 39.1328 194.043 39.2597 194.18 39.4111C194.366 39.6211 194.458 39.8237 194.458 40.019C194.458 40.2583 194.368 40.4633 194.188 40.6342C194.012 40.8003 193.78 40.8833 193.492 40.8833C193.184 40.8833 192.925 40.7905 192.715 40.6049C192.51 40.4194 192.408 40.2021 192.408 39.9531C192.408 39.6015 192.547 39.2671 192.825 38.9497C193.104 38.6274 193.492 38.3808 193.99 38.2099C194.488 38.039 195.005 37.9536 195.542 37.9536C196.192 37.9536 196.705 38.0927 197.081 38.3711C197.461 38.6445 197.708 38.9423 197.82 39.2646C197.889 39.4697 197.923 39.9409 197.923 40.6782V43.3369C197.923 43.6494 197.935 43.8471 197.959 43.9301C197.984 44.0083 198.021 44.0669 198.069 44.1059C198.118 44.145 198.174 44.1645 198.238 44.1645C198.365 44.1645 198.494 44.0742 198.626 43.8935L198.846 44.0693C198.602 44.4306 198.348 44.6943 198.084 44.8603C197.825 45.0215 197.53 45.102 197.198 45.102C196.807 45.102 196.502 45.0117 196.282 44.831C196.062 44.6455 195.928 44.3672 195.879 43.9961ZM195.879 43.4614V41.1689C195.289 41.5156 194.849 41.8867 194.561 42.2822C194.371 42.5459 194.275 42.812 194.275 43.0805C194.275 43.3051 194.356 43.5029 194.517 43.6738C194.639 43.8056 194.81 43.8715 195.03 43.8715C195.274 43.8715 195.557 43.7348 195.879 43.4614ZM202.317 35.6538V38.1587H203.943V38.8838H202.317V43.1098C202.317 43.5053 202.334 43.7617 202.369 43.8789C202.408 43.9912 202.474 44.084 202.566 44.1572C202.659 44.2256 202.745 44.2597 202.823 44.2597C203.14 44.2597 203.44 44.018 203.724 43.5346L203.943 43.6958C203.548 44.6333 202.906 45.102 202.017 45.102C201.583 45.102 201.214 44.9824 200.911 44.7431C200.613 44.499 200.423 44.228 200.34 43.9301C200.291 43.7641 200.267 43.3149 200.267 42.5825V38.8838H199.373V38.6274C199.988 38.1928 200.511 37.7363 200.94 37.2578C201.375 36.7793 201.753 36.2446 202.076 35.6538H202.317ZM206.243 34.8408C206.561 34.8408 206.829 34.9531 207.049 35.1777C207.269 35.3974 207.378 35.6635 207.378 35.976C207.378 36.2885 207.266 36.5547 207.042 36.7744C206.822 36.9941 206.556 37.104 206.243 37.104C205.931 37.104 205.665 36.9941 205.445 36.7744C205.225 36.5547 205.115 36.2885 205.115 35.976C205.115 35.6635 205.225 35.3974 205.445 35.1777C205.665 34.9531 205.931 34.8408 206.243 34.8408ZM207.269 38.1587V43.5859C207.269 44.0693 207.325 44.3794 207.437 44.5161C207.549 44.6479 207.769 44.7236 208.096 44.7431V45.0068H204.397V44.7431C204.7 44.7334 204.925 44.6455 205.071 44.4795C205.169 44.3672 205.218 44.0693 205.218 43.5859V39.5869C205.218 39.1035 205.162 38.7959 205.049 38.664C204.937 38.5273 204.72 38.4492 204.397 38.4297V38.1587H207.269ZM212 37.9536C212.596 37.9536 213.15 38.1074 213.663 38.415C214.175 38.7226 214.563 39.1596 214.827 39.726C215.096 40.2924 215.23 40.9126 215.23 41.5864C215.23 42.5581 214.983 43.3711 214.49 44.0254C213.895 44.8164 213.072 45.2119 212.022 45.2119C210.992 45.2119 210.198 44.8506 209.642 44.1279C209.085 43.4052 208.807 42.5678 208.807 41.6157C208.807 40.6342 209.09 39.7798 209.656 39.0522C210.228 38.3198 211.009 37.9536 212 37.9536ZM212.029 38.4736C211.78 38.4736 211.565 38.5688 211.385 38.7592C211.209 38.9448 211.092 39.3159 211.033 39.8725C210.979 40.4243 210.953 41.1933 210.953 42.1797C210.953 42.7021 210.987 43.1904 211.055 43.6445C211.109 43.9912 211.224 44.2548 211.399 44.4355C211.575 44.6162 211.775 44.7065 212 44.7065C212.22 44.7065 212.403 44.6455 212.549 44.5234C212.74 44.3574 212.867 44.1255 212.93 43.8276C213.028 43.3637 213.077 42.4262 213.077 41.0151C213.077 40.185 213.03 39.6162 212.938 39.3086C212.845 38.9961 212.708 38.769 212.527 38.6274C212.4 38.5249 212.234 38.4736 212.029 38.4736ZM219.068 38.1587V39.0449C219.419 38.664 219.756 38.3882 220.079 38.2173C220.401 38.0415 220.748 37.9536 221.119 37.9536C221.563 37.9536 221.932 38.0781 222.225 38.3271C222.518 38.5713 222.713 38.8764 222.811 39.2426C222.889 39.521 222.928 40.0556 222.928 40.8466V43.5127C222.928 44.04 222.974 44.3696 223.067 44.5014C223.165 44.6284 223.365 44.709 223.667 44.7431V45.0068H220.203V44.7431C220.462 44.709 220.647 44.6015 220.76 44.4209C220.838 44.2988 220.877 43.9961 220.877 43.5127V40.4658C220.877 39.9043 220.855 39.5503 220.811 39.4038C220.767 39.2573 220.691 39.145 220.584 39.0669C220.481 38.9839 220.367 38.9423 220.24 38.9423C219.82 38.9423 219.429 39.2426 219.068 39.8432V43.5127C219.068 44.0254 219.114 44.3501 219.207 44.4868C219.305 44.6235 219.483 44.709 219.742 44.7431V45.0068H216.277V44.7431C216.565 44.7138 216.771 44.6211 216.893 44.4648C216.976 44.3574 217.017 44.04 217.017 43.5127V39.6455C217.017 39.1279 216.968 38.8056 216.871 38.6787C216.778 38.5517 216.58 38.4687 216.277 38.4297V38.1587H219.068Z" fill="#3E4095"/>
<path d="M25.941 12.9705H23.4467C22.2827 9.97732 18.8571 3.99093 14.4671 3.99093C8.97959 3.99093 6.48526 6.48526 6.48526 9.97732C6.48526 13.4694 8.97959 14.966 12.9705 16.9615C16.1633 18.5578 24.1119 21.1187 27.4376 21.9501V34.9206C24.4444 34.9206 24.9433 38.4127 25.4422 39.9093C24.4444 40.4082 24.7438 40.6077 23.9456 41.4059C23.4467 41.9048 23.4467 42.4036 22.9478 43.4014C21.9501 44.3991 21.6508 44.898 14.4671 44.898C7.28345 44.898 2.82691 42.5699 1.4966 41.4059V33.424H3.99093C4.82237 36.4172 8.08163 42.4036 14.4671 42.4036C20.4535 42.4036 23.4467 39.9093 23.4467 34.9206C23.4467 29.932 15.9637 27.9365 11.9728 26.4399C7.98186 24.9433 0 22.449 0 13.9683C0 5.48753 9.97732 0 14.4671 0C18.059 0 22.9478 1.99546 24.9433 2.9932L25.941 12.9705Z" fill="#3E4095"/>
<path d="M62.8571 44.898H108.753V43.9002C108.088 43.5676 106.458 42.9025 105.261 42.9025C104.063 42.9025 103.432 41.2396 103.265 40.4082V0.997732C100.472 2.9932 95.4497 4.15722 93.288 4.4898V5.98639C96.78 5.98639 97.7778 6.98413 97.7778 9.47846V40.4082C97.7778 41.9048 96.78 42.9025 92.7891 42.9025C88.7982 42.9025 88.2993 41.9048 88.2993 40.4082V9.47846H87.3016C86.8027 9.81104 85.3061 10.6757 83.3107 11.4739C81.3152 12.2721 78.8209 13.1368 77.8231 13.4694V14.4671H80.3175C81.8141 14.4671 82.3129 15.4649 82.3129 17.4603V40.4082C82.3129 41.4059 81.3152 42.4036 80.3175 42.4036H68.8435C65.3515 42.4036 60.3628 38.4127 60.3628 33.424V29.4331H77.8231C77.8231 21.9501 72.3356 18.9569 66.8481 18.9569C61.3605 18.9569 53.3787 22.449 53.3787 31.9274C53.3787 39.5102 59.6977 43.7339 62.8571 44.898Z" fill="#3E4095"/>
<path d="M71.8367 27.4376H60.3628C60.3628 25.1096 61.4603 20.4535 65.8503 20.4535C70.2403 20.4535 71.6704 25.1096 71.8367 27.4376Z" fill="white" stroke="#3E4095" stroke-width="1.5"/>
<path d="M23.4467 20.9524V22.449C26.2403 22.449 27.2713 24.4444 27.4376 25.4422V44.898C32.5925 44.898 43.6389 45.3572 46.3945 44.898C49.3877 44.3991 52.8798 41.4059 53.8775 37.9138V25.4422C52.3809 22.449 47.8911 18.9569 42.9024 18.9569C37.7142 18.9569 34.7543 20.9524 33.9228 21.9501V16.9615H31.9274C29.9319 18.9569 25.4421 20.4535 23.4467 20.9524Z" fill="#FFCC29" stroke="#3E4095" stroke-width="1.5"/>
<path d="M34.4218 42.9025V25.4422C34.4218 24.9433 35.4195 23.9456 39.4104 23.9456C44.3991 23.9456 47.3923 28.9342 47.3923 33.9229C47.3923 38.9116 42.9025 42.9025 40.907 42.9025H34.4218Z" fill="white" stroke="#3E4095" stroke-width="1.5"/>
<path d="M40.907 45.8957C39.7097 45.8957 38.7452 45.5631 38.4126 45.3968V47.3923C38.7452 47.8912 39.4104 49.1882 39.4104 50.3855C39.4104 51.5828 38.7452 52.2147 38.4126 52.381V65.8503C39.2108 65.8503 39.4104 66.8481 39.4104 67.3469H35.4194C35.2532 66.5155 34.9206 64.4535 34.9206 62.8571V57.3696C34.588 58.3673 33.9228 60.6621 33.9228 61.8594C33.9228 63.356 33.9228 64.8526 34.4217 65.3515C34.9206 65.8503 34.4217 66.3492 34.9206 67.3469C35.4194 68.3447 33.9228 68.8435 33.424 68.8435C32.9251 68.8435 32.4263 68.3447 32.4263 67.3469C32.4263 66.3492 31.4285 66.3492 31.4285 65.3515V57.8685C31.4285 56.3719 32.4263 56.3719 32.4263 54.8753C32.4263 53.3787 31.4285 52.8798 31.4285 51.8821C31.4285 50.8844 31.9274 49.3878 31.4285 48.39C30.9297 47.3923 30.4308 46.3946 30.4308 44.3991C30.4308 42.4036 30.4308 40.907 30.9297 39.9093C31.4285 38.9116 33.424 38.9116 33.424 37.9138C33.424 36.9161 32.4263 36.9161 32.4263 35.4195C32.4263 33.9229 33.424 32.4263 34.9206 32.4263C36.4172 32.4263 36.916 33.9229 36.916 35.4195C36.916 36.9161 35.9183 36.4172 35.9183 37.9138C35.9183 39.4104 37.9138 38.9116 38.4126 39.9093C38.9115 40.907 39.9092 42.4036 40.907 42.4036C41.9047 42.4036 42.9024 42.4036 43.4013 41.4059C43.9002 40.4082 43.9002 39.9093 45.3968 39.9093C46.8934 39.9093 46.8934 39.9093 46.8934 40.907C46.8934 41.9048 45.3968 41.9048 45.3968 42.4036C45.3968 42.9025 44.399 43.9002 43.4013 44.3991C42.4036 44.898 42.4036 45.8957 40.907 45.8957Z" fill="#FFCC29" stroke="#3E4095" stroke-width="1.5"/>
<path d="M26.4399 39.9093C25.4421 40.4082 23.4467 41.805 23.4467 43.4014C23.4467 45.3968 24.9433 45.8957 24.9433 46.8934C24.9433 47.8912 23.9455 48.39 23.9455 50.8844C23.9455 53.3787 24.9433 56.3719 24.9433 58.3673C24.9433 60.3628 25.941 63.356 25.941 63.8549C25.941 64.254 25.6084 64.6863 25.4421 64.8526C25.4421 65.1852 25.5419 65.8503 25.941 65.8503C26.3401 65.8503 27.105 64.8526 27.4376 64.3537V63.356C27.105 63.1897 26.4399 62.458 26.4399 60.8617C26.4399 59.2653 27.4376 58.5336 27.9365 58.3673C29.9319 58.3673 30.0982 63.6886 29.9319 66.3492H31.4285L30.9296 58.8662L29.9319 56.3719V52.8798C29.9319 50.8844 28.9342 49.3878 28.9342 48.39C28.9342 47.5918 29.5993 47.0597 29.9319 46.8934C30.4308 45.3968 30.4308 42.2041 30.4308 41.4059C30.4308 40.6077 28.6016 40.0756 27.9365 39.9093V38.9116C28.1027 38.7453 28.9342 38.2132 28.9342 37.415C28.9342 36.4172 28.4353 35.4195 26.9387 35.4195C25.941 35.4195 25.4421 36.4172 25.4421 37.415C25.4421 38.2132 26.2736 38.7453 26.4399 38.9116V39.9093Z" fill="#3E4095"/>
</svg>
