<svg width="30" height="30" viewBox="0 0 30 30" fill="none" xmlns="http://www.w3.org/2000/svg">
<g clip-path="url(#clip0)">
<path d="M1.87488 2.04137C-0.482617 4.49012 -0.000117138 7.09137 -0.000117138 14.9939C-0.000117138 21.5564 -1.14512 28.1351 4.84738 29.6839C6.71863 30.1651 23.2986 30.1651 25.1674 29.6814C27.6624 29.0376 29.6924 27.0139 29.9699 23.4851C30.0086 22.9926 30.0086 7.00387 29.9686 6.50137C29.6736 2.74262 27.3599 0.576369 24.3111 0.137619C23.6124 0.0363691 23.4724 0.00636904 19.8874 0.000119042C7.17113 0.00636904 4.38363 -0.559881 1.87488 2.04137Z" fill="url(#paint0_linear)"/>
<path d="M14.9975 3.92378C10.4588 3.92378 6.14876 3.52003 4.50251 7.74502C3.82251 9.49002 3.92126 11.7563 3.92126 15.0013C3.92126 17.8488 3.83001 20.525 4.50251 22.2563C6.14501 26.4838 10.49 26.0788 14.995 26.0788C19.3413 26.0788 23.8225 26.5313 25.4888 22.2563C26.17 20.4938 26.07 18.2613 26.07 15.0013C26.07 10.6738 26.3088 7.88002 24.21 5.78253C22.085 3.65753 19.2113 3.92378 14.9925 3.92378H14.9975ZM14.005 5.92003C23.4725 5.90503 24.6775 4.85253 24.0125 19.4738C23.7763 24.645 19.8388 24.0775 14.9988 24.0775C6.17376 24.0775 5.92001 23.825 5.92001 14.9963C5.92001 6.06503 6.62001 5.92503 14.005 5.91753V5.92003ZM20.91 7.75877C20.1763 7.75877 19.5813 8.35377 19.5813 9.08752C19.5813 9.82127 20.1763 10.4163 20.91 10.4163C21.6438 10.4163 22.2388 9.82127 22.2388 9.08752C22.2388 8.35377 21.6438 7.75877 20.91 7.75877ZM14.9975 9.31252C11.8563 9.31252 9.31001 11.86 9.31001 15.0013C9.31001 18.1425 11.8563 20.6888 14.9975 20.6888C18.1388 20.6888 20.6838 18.1425 20.6838 15.0013C20.6838 11.86 18.1388 9.31252 14.9975 9.31252ZM14.9975 11.3088C19.8788 11.3088 19.885 18.6938 14.9975 18.6938C10.1175 18.6938 10.11 11.3088 14.9975 11.3088Z" fill="white"/>
</g>
<defs>
<linearGradient id="paint0_linear" x1="1.93241" y1="28.084" x2="29.8142" y2="3.9526" gradientUnits="userSpaceOnUse">
<stop stop-color="#FFDD55"/>
<stop offset="0.5" stop-color="#FF543E"/>
<stop offset="1" stop-color="#C837AB"/>
</linearGradient>
<clipPath id="clip0">
<rect width="30" height="30" fill="white"/>
</clipPath>
</defs>
</svg>
