<svg width="287" height="53" viewBox="0 0 287 53" fill="none" xmlns="http://www.w3.org/2000/svg">
<path d="M5.53759 3.18718L143.882 6.34988C176.964 6.34988 277.07 -5.51029 283.945 3.18718C290.819 11.8847 283.945 48.2559 283.945 48.2559H144.741C144.741 48.2559 17.9972 58.9301 5.53759 48.2559C-6.92199 37.5818 5.53759 3.18718 5.53759 3.18718Z" fill="#FFCC29"/>
<g filter="url(#filter0_dd_251_785)">
<path d="M45.6602 39.8262L35.0078 13.5117H41.1602L46.1172 27.2578L51.4434 12.6855H51.918L57.2793 27.2578L62.1836 13.5117H67.8613L57.2793 39.8262H56.8926L51.4434 25.2539L46.1172 39.8262H45.6602ZM75.2266 39H69.7246V13.916L75.2266 13.1602V25.3945C76 24.4922 76.8262 23.8242 77.7051 23.3906C78.5957 22.9453 79.5566 22.7227 80.5879 22.7227C82.2637 22.7227 83.5352 23.2031 84.4023 24.1641C85.2695 25.125 85.7031 26.5312 85.7031 28.3828V39H80.2363V29.9297C80.2363 29.0977 80.0664 28.4707 79.7266 28.0488C79.3867 27.627 78.8828 27.416 78.2148 27.416C77.2539 27.416 76.5156 27.7383 76 28.3828C75.4844 29.0273 75.2266 29.9648 75.2266 31.1953V39ZM94.334 31.0723C94.334 32.4199 94.6211 33.5098 95.1953 34.3418C95.7812 35.1621 96.5254 35.5723 97.4277 35.5723C98.3301 35.5723 99.0684 35.1562 99.6426 34.3242C100.229 33.4922 100.521 32.4082 100.521 31.0723C100.521 29.748 100.229 28.6699 99.6426 27.8379C99.0684 26.9941 98.3301 26.5723 97.4277 26.5723C96.5254 26.5723 95.7812 26.9883 95.1953 27.8203C94.6211 28.6523 94.334 29.7363 94.334 31.0723ZM88.709 31.0723C88.709 28.5527 89.5293 26.4785 91.1699 24.8496C92.8223 23.2207 94.9082 22.4062 97.4277 22.4062C99.959 22.4062 102.051 23.2207 103.703 24.8496C105.355 26.4785 106.182 28.5527 106.182 31.0723C106.182 33.5918 105.355 35.6719 103.703 37.3125C102.051 38.9414 99.959 39.7559 97.4277 39.7559C94.9199 39.7559 92.8398 38.9414 91.1875 37.3125C89.5352 35.6719 88.709 33.5918 88.709 31.0723ZM126.115 30.8965H132.812L129.508 22.916L126.115 30.8965ZM116.588 39L129.578 12.7207H129.965L142.674 39H136.311L134.693 35.291H124.357L122.705 39H116.588ZM149.371 39H143.834V23.1621H148.984L149.09 25.9395C149.723 24.8262 150.461 24.0176 151.305 23.5137C152.16 23.0098 153.221 22.7578 154.486 22.7578H154.926V28.6641H154.346H153.73C152.008 28.6641 150.848 28.8633 150.25 29.2617C149.664 29.6484 149.371 30.5918 149.371 32.0918V39ZM162.115 29.5957L168.988 29.3848V29.1387C168.988 28.3066 168.695 27.627 168.109 27.0996C167.523 26.5605 166.785 26.291 165.895 26.291C164.898 26.291 164.066 26.584 163.398 27.1699C162.73 27.7441 162.303 28.5527 162.115 29.5957ZM172.627 33.3398L172.012 38.209C170.934 38.7246 169.873 39.1055 168.83 39.3516C167.787 39.5977 166.732 39.7207 165.666 39.7207C163.029 39.7207 160.902 38.9648 159.285 37.4531C157.668 35.9297 156.859 33.9492 156.859 31.5117C156.859 28.9688 157.744 26.8242 159.514 25.0781C161.283 23.3203 163.434 22.4414 165.965 22.4414C168.133 22.4414 169.908 23.0859 171.291 24.375C172.686 25.6523 173.383 27.3105 173.383 29.3496C173.383 29.666 173.359 30.1699 173.312 30.8613L173.295 30.9668L172.803 31.6875L161.992 31.9863C162.074 33.0527 162.52 33.9199 163.328 34.5879C164.137 35.2441 165.156 35.5723 166.387 35.5723C167.254 35.5723 168.215 35.3848 169.27 35.0098C170.336 34.6348 171.455 34.0781 172.627 33.3398ZM195.109 39.8262L184.457 13.5117H190.609L195.566 27.2578L200.893 12.6855H201.367L206.729 27.2578L211.633 13.5117H217.311L206.729 39.8262H206.342L200.893 25.2539L195.566 39.8262H195.109ZM220.123 29.5957L226.996 29.3848V29.1387C226.996 28.3066 226.703 27.627 226.117 27.0996C225.531 26.5605 224.793 26.291 223.902 26.291C222.906 26.291 222.074 26.584 221.406 27.1699C220.738 27.7441 220.311 28.5527 220.123 29.5957ZM230.635 33.3398L230.02 38.209C228.941 38.7246 227.881 39.1055 226.838 39.3516C225.795 39.5977 224.74 39.7207 223.674 39.7207C221.037 39.7207 218.91 38.9648 217.293 37.4531C215.676 35.9297 214.867 33.9492 214.867 31.5117C214.867 28.9688 215.752 26.8242 217.521 25.0781C219.291 23.3203 221.441 22.4414 223.973 22.4414C226.141 22.4414 227.916 23.0859 229.299 24.375C230.693 25.6523 231.391 27.3105 231.391 29.3496C231.391 29.666 231.367 30.1699 231.32 30.8613L231.303 30.9668L230.811 31.6875L220 31.9863C220.082 33.0527 220.527 33.9199 221.336 34.5879C222.145 35.2441 223.164 35.5723 224.395 35.5723C225.262 35.5723 226.223 35.3848 227.277 35.0098C228.344 34.6348 229.463 34.0781 230.635 33.3398ZM246.807 31.2305V24.7441C248.811 24.252 250.311 23.6367 251.307 22.8984C252.314 22.1602 252.818 21.2988 252.818 20.3145C252.818 19.5059 252.52 18.873 251.922 18.416C251.324 17.959 250.498 17.7305 249.443 17.7305C248.963 17.7305 248.412 17.7715 247.791 17.8535C247.182 17.9355 246.52 18.0586 245.805 18.2227L246.156 13.0371C246.777 12.9199 247.393 12.832 248.002 12.7734C248.623 12.7148 249.232 12.6855 249.83 12.6855C252.42 12.6855 254.482 13.3301 256.018 14.6191C257.564 15.9082 258.338 17.625 258.338 19.7695C258.338 21.6211 257.74 23.2441 256.545 24.6387C255.35 26.0332 253.668 27.0762 251.5 27.7676L251.377 30.4746L246.807 31.2305ZM246.121 36.4512C246.121 35.6309 246.414 34.9277 247 34.3418C247.598 33.7559 248.301 33.4629 249.109 33.4629C249.965 33.4629 250.674 33.75 251.236 34.3242C251.811 34.8867 252.098 35.5957 252.098 36.4512C252.098 37.2715 251.805 37.9746 251.219 38.5605C250.645 39.1465 249.941 39.4395 249.109 39.4395C248.312 39.4395 247.615 39.1406 247.018 38.543C246.42 37.9453 246.121 37.248 246.121 36.4512Z" fill="#28146F"/>
<path d="M45.6602 39.8262L44.7332 40.2014L44.9861 40.8262H45.6602V39.8262ZM35.0078 13.5117V12.5117H33.5242L34.0809 13.8869L35.0078 13.5117ZM41.1602 13.5117L42.1009 13.1725L41.8626 12.5117H41.1602V13.5117ZM46.1172 27.2578L45.1765 27.597L46.1109 30.1881L47.0564 27.6011L46.1172 27.2578ZM51.4434 12.6855V11.6855H50.7442L50.5041 12.3423L51.4434 12.6855ZM51.918 12.6855L52.8565 12.3403L52.6156 11.6855H51.918V12.6855ZM57.2793 27.2578L56.3408 27.6031L57.2937 30.1932L58.2211 27.5938L57.2793 27.2578ZM62.1836 13.5117V12.5117H61.4786L61.2417 13.1757L62.1836 13.5117ZM67.8613 13.5117L68.7891 13.8848L69.3413 12.5117H67.8613V13.5117ZM57.2793 39.8262V40.8262H57.955L58.2071 40.1993L57.2793 39.8262ZM56.8926 39.8262L55.9559 40.1764L56.1989 40.8262H56.8926V39.8262ZM51.4434 25.2539L52.38 24.9037L51.4326 22.3702L50.5041 24.9106L51.4434 25.2539ZM46.1172 39.8262V40.8262H46.8164L47.0564 40.1695L46.1172 39.8262ZM46.5871 39.4509L35.9347 13.1365L34.0809 13.8869L44.7332 40.2014L46.5871 39.4509ZM35.0078 14.5117H41.1602V12.5117H35.0078V14.5117ZM40.2195 13.8509L45.1765 27.597L47.0579 26.9186L42.1009 13.1725L40.2195 13.8509ZM47.0564 27.6011L52.3826 13.0288L50.5041 12.3423L45.178 26.9145L47.0564 27.6011ZM51.4434 13.6855H51.918V11.6855H51.4434V13.6855ZM50.9795 13.0308L56.3408 27.6031L58.2178 26.9125L52.8565 12.3403L50.9795 13.0308ZM58.2211 27.5938L63.1254 13.8477L61.2417 13.1757L56.3374 26.9218L58.2211 27.5938ZM62.1836 14.5117H67.8613V12.5117H62.1836V14.5117ZM66.9335 13.1386L56.3515 39.4531L58.2071 40.1993L68.7891 13.8848L66.9335 13.1386ZM57.2793 38.8262H56.8926V40.8262H57.2793V38.8262ZM57.8292 39.4759L52.38 24.9037L50.5067 25.6042L55.9559 40.1764L57.8292 39.4759ZM50.5041 24.9106L45.178 39.4829L47.0564 40.1695L52.3826 25.5972L50.5041 24.9106ZM46.1172 38.8262H45.6602V40.8262H46.1172V38.8262ZM75.2266 39V40H76.2266V39H75.2266ZM69.7246 39H68.7246V40H69.7246V39ZM69.7246 13.916L69.5885 12.9253L68.7246 13.044V13.916H69.7246ZM75.2266 13.1602H76.2266V12.0134L75.0905 12.1695L75.2266 13.1602ZM75.2266 25.3945H74.2266V28.0978L75.9858 26.0453L75.2266 25.3945ZM77.7051 23.3906L78.1475 24.2874L78.1523 24.2851L77.7051 23.3906ZM85.7031 39V40H86.7031V39H85.7031ZM80.2363 39H79.2363V40H80.2363V39ZM75.2266 38H69.7246V40H75.2266V38ZM70.7246 39V13.916H68.7246V39H70.7246ZM69.8607 14.9067L75.3627 14.1509L75.0905 12.1695L69.5885 12.9253L69.8607 14.9067ZM74.2266 13.1602V25.3945H76.2266V13.1602H74.2266ZM75.9858 26.0453C76.6896 25.2242 77.4126 24.65 78.1475 24.2874L77.2627 22.4938C76.2397 22.9985 75.3104 23.7601 74.4673 24.7437L75.9858 26.0453ZM78.1523 24.2851C78.899 23.9117 79.7062 23.7227 80.5879 23.7227V21.7227C79.4071 21.7227 78.2924 21.9789 77.2579 22.4962L78.1523 24.2851ZM80.5879 23.7227C82.0692 23.7227 83.0345 24.141 83.66 24.834L85.1447 23.4941C84.0358 22.2653 82.4582 21.7227 80.5879 21.7227V23.7227ZM83.66 24.834C84.302 25.5455 84.7031 26.6731 84.7031 28.3828H86.7031C86.7031 26.3894 86.237 24.7045 85.1447 23.4941L83.66 24.834ZM84.7031 28.3828V39H86.7031V28.3828H84.7031ZM85.7031 38H80.2363V40H85.7031V38ZM81.2363 39V29.9297H79.2363V39H81.2363ZM81.2363 29.9297C81.2363 28.9856 81.0473 28.0943 80.5053 27.4215L78.9478 28.6762C79.0855 28.8471 79.2363 29.2097 79.2363 29.9297H81.2363ZM80.5053 27.4215C79.9318 26.7096 79.1078 26.416 78.2148 26.416V28.416C78.6578 28.416 78.8416 28.5444 78.9478 28.6762L80.5053 27.4215ZM78.2148 26.416C77.0061 26.416 75.9569 26.8359 75.2191 27.7581L76.7809 29.0075C77.0743 28.6407 77.5017 28.416 78.2148 28.416V26.416ZM75.2191 27.7581C74.5068 28.6486 74.2266 29.8448 74.2266 31.1953H76.2266C76.2266 30.0849 76.462 29.4061 76.7809 29.0075L75.2191 27.7581ZM74.2266 31.1953V39H76.2266V31.1953H74.2266ZM95.1953 34.3418L94.3723 34.9098L94.3769 34.9165L94.3816 34.923L95.1953 34.3418ZM99.6426 34.3242L98.8249 33.7484L98.8196 33.7562L99.6426 34.3242ZM99.6426 27.8379L98.8159 28.4005L98.8204 28.4071L98.825 28.4137L99.6426 27.8379ZM95.1953 27.8203L94.3777 27.2445L94.3723 27.2523L95.1953 27.8203ZM91.1699 24.8496L90.4679 24.1375L90.4654 24.14L91.1699 24.8496ZM103.703 37.3125L104.405 38.0246L104.408 38.0221L103.703 37.3125ZM91.1875 37.3125L90.4829 38.0221L90.4855 38.0246L91.1875 37.3125ZM93.334 31.0723C93.334 32.5563 93.6501 33.8633 94.3723 34.9098L96.0183 33.7738C95.5921 33.1562 95.334 32.2835 95.334 31.0723H93.334ZM94.3816 34.923C95.1297 35.9704 96.1609 36.5723 97.4277 36.5723V34.5723C96.8899 34.5723 96.4328 34.3538 96.009 33.7606L94.3816 34.923ZM97.4277 36.5723C98.7023 36.5723 99.7309 35.9568 100.466 34.8922L98.8196 33.7562C98.4058 34.3557 97.9578 34.5723 97.4277 34.5723V36.5723ZM100.46 34.9C101.197 33.8538 101.521 32.5504 101.521 31.0723H99.5215C99.5215 32.266 99.2601 33.1306 98.825 33.7484L100.46 34.9ZM101.521 31.0723C101.521 29.6037 101.196 28.307 100.46 27.2621L98.825 28.4137C99.261 29.0329 99.5215 29.8924 99.5215 31.0723H101.521ZM100.469 27.2753C99.7373 26.1997 98.7086 25.5723 97.4277 25.5723V27.5723C97.9516 27.5723 98.3994 27.7886 98.8159 28.4005L100.469 27.2753ZM97.4277 25.5723C96.1547 25.5723 95.1232 26.1859 94.3777 27.2445L96.0129 28.3961C96.4393 27.7906 96.8961 27.5723 97.4277 27.5723V25.5723ZM94.3723 27.2523C93.651 28.2975 93.334 29.5978 93.334 31.0723H95.334C95.334 29.8749 95.5912 29.0072 96.0183 28.3883L94.3723 27.2523ZM89.709 31.0723C89.709 28.7928 90.4409 26.9826 91.8745 25.5592L90.4654 24.14C88.6177 25.9744 87.709 28.3127 87.709 31.0723H89.709ZM91.872 25.5617C93.3202 24.134 95.1461 23.4062 97.4277 23.4062V21.4062C94.6703 21.4062 92.3243 22.3074 90.4679 24.1375L91.872 25.5617ZM97.4277 23.4062C99.7225 23.4062 101.554 24.1349 103.001 25.5617L104.405 24.1375C102.548 22.3065 100.195 21.4062 97.4277 21.4062V23.4062ZM103.001 25.5617C104.445 26.9856 105.182 28.795 105.182 31.0723H107.182C107.182 28.3105 106.266 25.9714 104.405 24.1375L103.001 25.5617ZM105.182 31.0723C105.182 33.3495 104.445 35.1664 102.999 36.6029L104.408 38.0221C106.266 36.1774 107.182 33.8341 107.182 31.0723H105.182ZM103.001 36.6004C101.554 38.0272 99.7225 38.7559 97.4277 38.7559V40.7559C100.195 40.7559 102.548 39.8556 104.405 38.0246L103.001 36.6004ZM97.4277 38.7559C95.1593 38.7559 93.3387 38.029 91.8895 36.6004L90.4855 38.0246C92.3409 39.8538 94.6806 40.7559 97.4277 40.7559V38.7559ZM91.8921 36.6029C90.4453 35.1664 89.709 33.3495 89.709 31.0723H87.709C87.709 33.8341 88.625 36.1774 90.4829 38.0221L91.8921 36.6029ZM126.115 30.8965L125.195 30.5053L124.604 31.8965H126.115V30.8965ZM132.812 30.8965V31.8965H134.309L133.736 30.5139L132.812 30.8965ZM129.508 22.916L130.432 22.5334L129.52 20.3315L128.588 22.5248L129.508 22.916ZM116.588 39L115.691 38.5569L114.978 40H116.588V39ZM129.578 12.7207V11.7207H128.957L128.682 12.2776L129.578 12.7207ZM129.965 12.7207L130.865 12.2853L130.592 11.7207H129.965V12.7207ZM142.674 39V40H144.268L143.574 38.5646L142.674 39ZM136.311 39L135.394 39.3997L135.656 40H136.311V39ZM134.693 35.291L135.61 34.8913L135.348 34.291H134.693V35.291ZM124.357 35.291V34.291H123.708L123.444 34.8841L124.357 35.291ZM122.705 39V40H123.354L123.619 39.4069L122.705 39ZM126.115 31.8965H132.812V29.8965H126.115V31.8965ZM133.736 30.5139L130.432 22.5334L128.584 23.2986L131.889 31.2791L133.736 30.5139ZM128.588 22.5248L125.195 30.5053L127.036 31.2877L130.428 23.3072L128.588 22.5248ZM117.484 39.4431L130.475 13.1638L128.682 12.2776L115.691 38.5569L117.484 39.4431ZM129.578 13.7207H129.965V11.7207H129.578V13.7207ZM129.065 13.1561L141.774 39.4354L143.574 38.5646L130.865 12.2853L129.065 13.1561ZM142.674 38H136.311V40H142.674V38ZM137.227 38.6003L135.61 34.8913L133.777 35.6907L135.394 39.3997L137.227 38.6003ZM134.693 34.291H124.357V36.291H134.693V34.291ZM123.444 34.8841L121.792 38.5931L123.619 39.4069L125.271 35.698L123.444 34.8841ZM122.705 38H116.588V40H122.705V38ZM149.371 39V40H150.371V39H149.371ZM143.834 39H142.834V40H143.834V39ZM143.834 23.1621V22.1621H142.834V23.1621H143.834ZM148.984 23.1621L149.984 23.1242L149.947 22.1621H148.984V23.1621ZM149.09 25.9395L148.091 25.9774L148.224 29.4866L149.959 26.4336L149.09 25.9395ZM151.305 23.5137L150.797 22.652L150.792 22.6551L151.305 23.5137ZM154.926 22.7578H155.926V21.7578H154.926V22.7578ZM154.926 28.6641V29.6641H155.926V28.6641H154.926ZM150.25 29.2617L150.801 30.0963L150.805 30.0938L150.25 29.2617ZM149.371 38H143.834V40H149.371V38ZM144.834 39V23.1621H142.834V39H144.834ZM143.834 24.1621H148.984V22.1621H143.834V24.1621ZM147.985 23.2001L148.091 25.9774L150.089 25.9015L149.984 23.1242L147.985 23.2001ZM149.959 26.4336C150.532 25.4263 151.16 24.7646 151.817 24.3722L150.792 22.6551C149.761 23.2705 148.914 24.2261 148.22 25.4453L149.959 26.4336ZM151.812 24.3753C152.477 23.9837 153.351 23.7578 154.486 23.7578V21.7578C153.09 21.7578 151.843 22.0359 150.797 22.652L151.812 24.3753ZM154.486 23.7578H154.926V21.7578H154.486V23.7578ZM153.926 22.7578V28.6641H155.926V22.7578H153.926ZM154.926 27.6641H154.346V29.6641H154.926V27.6641ZM154.346 27.6641H153.73V29.6641H154.346V27.6641ZM153.73 27.6641C152.836 27.6641 152.054 27.7154 151.399 27.8279C150.758 27.9379 150.162 28.1188 149.695 28.4297L150.805 30.0938C150.936 30.0062 151.218 29.8883 151.738 29.7991C152.243 29.7123 152.902 29.6641 153.73 29.6641V27.6641ZM149.699 28.4271C149.148 28.7908 148.823 29.3588 148.636 29.9627C148.448 30.5665 148.371 31.2877 148.371 32.0918H150.371C150.371 31.3959 150.44 30.8954 150.546 30.5559C150.651 30.2164 150.766 30.1194 150.801 30.0963L149.699 28.4271ZM148.371 32.0918V39H150.371V32.0918H148.371ZM162.115 29.5957L161.131 29.4188L160.913 30.6331L162.146 30.5952L162.115 29.5957ZM168.988 29.3848L169.019 30.3843L169.988 30.3545V29.3848H168.988ZM168.109 27.0996L167.432 27.8356L167.44 27.8429L168.109 27.0996ZM163.398 27.1699L164.05 27.9283L164.058 27.9217L163.398 27.1699ZM172.627 33.3398L173.619 33.4652L173.884 31.3658L172.094 32.4938L172.627 33.3398ZM172.012 38.209L172.443 39.1111L172.935 38.8757L173.004 38.3343L172.012 38.209ZM159.285 37.4531L158.599 38.181L158.602 38.1837L159.285 37.4531ZM159.514 25.0781L160.216 25.7899L160.218 25.7876L159.514 25.0781ZM171.291 24.375L170.609 25.1065L170.616 25.1124L171.291 24.375ZM173.312 30.8613L174.299 31.0257L174.307 30.9776L174.31 30.929L173.312 30.8613ZM173.295 30.9668L174.121 31.5308L174.245 31.3487L174.281 31.1312L173.295 30.9668ZM172.803 31.6875L172.83 32.6871L173.341 32.673L173.629 32.2515L172.803 31.6875ZM161.992 31.9863L161.965 30.9867L160.915 31.0157L160.995 32.063L161.992 31.9863ZM163.328 34.5879L162.691 35.3589L162.698 35.3643L163.328 34.5879ZM169.27 35.0098L168.938 34.0664L168.935 34.0676L169.27 35.0098ZM162.146 30.5952L169.019 30.3843L168.958 28.3852L162.085 28.5962L162.146 30.5952ZM169.988 29.3848V29.1387H167.988V29.3848H169.988ZM169.988 29.1387C169.988 28.0409 169.588 27.0849 168.778 26.3563L167.44 27.8429C167.803 28.169 167.988 28.5723 167.988 29.1387H169.988ZM168.786 26.3637C167.994 25.6342 167.004 25.291 165.895 25.291V27.291C166.566 27.291 167.053 27.4869 167.432 27.8355L168.786 26.3637ZM165.895 25.291C164.687 25.291 163.612 25.6526 162.739 26.4182L164.058 27.9217C164.521 27.5154 165.11 27.291 165.895 27.291V25.291ZM162.747 26.4116C161.871 27.1645 161.351 28.1972 161.131 29.4188L163.099 29.7726C163.255 28.9082 163.59 28.3238 164.05 27.9282L162.747 26.4116ZM171.635 33.2145L171.02 38.0836L173.004 38.3343L173.619 33.4652L171.635 33.2145ZM171.58 37.3069C170.559 37.7951 169.566 38.1504 168.6 38.3783L169.06 40.3248C170.18 40.0606 171.308 39.6541 172.443 39.1111L171.58 37.3069ZM168.6 38.3783C167.632 38.6067 166.655 38.7207 165.666 38.7207V40.7207C166.81 40.7207 167.942 40.5886 169.06 40.3248L168.6 38.3783ZM165.666 38.7207C163.231 38.7207 161.366 38.029 159.968 36.7226L158.602 38.1837C160.439 39.9007 162.827 40.7207 165.666 40.7207V38.7207ZM159.971 36.7252C158.575 35.4102 157.859 33.7034 157.859 31.5117H155.859C155.859 34.1951 156.761 36.4492 158.599 38.181L159.971 36.7252ZM157.859 31.5117C157.859 29.2294 158.642 27.3433 160.216 25.7899L158.811 24.3663C156.846 26.3051 155.859 28.7081 155.859 31.5117H157.859ZM160.218 25.7876C161.798 24.2189 163.693 23.4414 165.965 23.4414V21.4414C163.174 21.4414 160.769 22.4217 158.809 24.3687L160.218 25.7876ZM165.965 23.4414C167.92 23.4414 169.439 24.0154 170.609 25.1065L171.973 23.6435C170.378 22.1565 168.346 21.4414 165.965 21.4414V23.4414ZM170.616 25.1124C171.786 26.1843 172.383 27.5664 172.383 29.3496H174.383C174.383 27.0547 173.585 25.1203 171.966 23.6376L170.616 25.1124ZM172.383 29.3496C172.383 29.6297 172.361 30.1048 172.315 30.7937L174.31 30.929C174.357 30.235 174.383 29.7023 174.383 29.3496H172.383ZM172.326 30.6969L172.309 30.8024L174.281 31.1312L174.299 31.0257L172.326 30.6969ZM172.469 30.4028L171.977 31.1235L173.629 32.2515L174.121 31.5308L172.469 30.4028ZM172.775 30.6879L161.965 30.9867L162.02 32.9859L172.83 32.6871L172.775 30.6879ZM160.995 32.063C161.098 33.3941 161.669 34.5141 162.691 35.3589L163.965 33.8169C163.37 33.3257 163.051 32.7114 162.989 31.9096L160.995 32.063ZM162.698 35.3643C163.716 36.1904 164.97 36.5723 166.387 36.5723V34.5723C165.342 34.5723 164.558 34.2979 163.958 33.8114L162.698 35.3643ZM166.387 36.5723C167.396 36.5723 168.472 36.3547 169.605 35.952L168.935 34.0676C167.958 34.4149 167.112 34.5723 166.387 34.5723V36.5723ZM169.601 35.9531C170.752 35.5485 171.938 34.9555 173.16 34.1859L172.094 32.4938C170.972 33.2007 169.92 33.721 168.938 34.0664L169.601 35.9531ZM195.109 39.8262L194.182 40.2014L194.435 40.8262H195.109V39.8262ZM184.457 13.5117V12.5117H182.973L183.53 13.8869L184.457 13.5117ZM190.609 13.5117L191.55 13.1725L191.312 12.5117H190.609V13.5117ZM195.566 27.2578L194.626 27.597L195.56 30.1881L196.506 27.6011L195.566 27.2578ZM200.893 12.6855V11.6855H200.193L199.953 12.3423L200.893 12.6855ZM201.367 12.6855L202.306 12.3403L202.065 11.6855H201.367V12.6855ZM206.729 27.2578L205.79 27.6031L206.743 30.1932L207.67 27.5938L206.729 27.2578ZM211.633 13.5117V12.5117H210.928L210.691 13.1757L211.633 13.5117ZM217.311 13.5117L218.238 13.8848L218.791 12.5117H217.311V13.5117ZM206.729 39.8262V40.8262H207.404L207.656 40.1993L206.729 39.8262ZM206.342 39.8262L205.405 40.1764L205.648 40.8262H206.342V39.8262ZM200.893 25.2539L201.829 24.9037L200.882 22.3702L199.953 24.9106L200.893 25.2539ZM195.566 39.8262V40.8262H196.266L196.506 40.1695L195.566 39.8262ZM196.036 39.4509L185.384 13.1365L183.53 13.8869L194.182 40.2014L196.036 39.4509ZM184.457 14.5117H190.609V12.5117H184.457V14.5117ZM189.669 13.8509L194.626 27.597L196.507 26.9186L191.55 13.1725L189.669 13.8509ZM196.506 27.6011L201.832 13.0288L199.953 12.3423L194.627 26.9145L196.506 27.6011ZM200.893 13.6855H201.367V11.6855H200.893V13.6855ZM200.429 13.0308L205.79 27.6031L207.667 26.9125L202.306 12.3403L200.429 13.0308ZM207.67 27.5938L212.575 13.8477L210.691 13.1757L205.787 26.9218L207.67 27.5938ZM211.633 14.5117H217.311V12.5117H211.633V14.5117ZM216.383 13.1386L205.801 39.4531L207.656 40.1993L218.238 13.8848L216.383 13.1386ZM206.729 38.8262H206.342V40.8262H206.729V38.8262ZM207.278 39.4759L201.829 24.9037L199.956 25.6042L205.405 40.1764L207.278 39.4759ZM199.953 24.9106L194.627 39.4829L196.506 40.1695L201.832 25.5972L199.953 24.9106ZM195.566 38.8262H195.109V40.8262H195.566V38.8262ZM220.123 29.5957L219.139 29.4188L218.921 30.6331L220.154 30.5952L220.123 29.5957ZM226.996 29.3848L227.027 30.3843L227.996 30.3545V29.3848H226.996ZM226.117 27.0996L225.44 27.8356L225.448 27.8429L226.117 27.0996ZM221.406 27.1699L222.058 27.9283L222.066 27.9217L221.406 27.1699ZM230.635 33.3398L231.627 33.4652L231.892 31.3658L230.102 32.4938L230.635 33.3398ZM230.02 38.209L230.451 39.1111L230.943 38.8757L231.012 38.3343L230.02 38.209ZM217.293 37.4531L216.607 38.181L216.61 38.1837L217.293 37.4531ZM217.521 25.0781L218.224 25.7899L218.226 25.7876L217.521 25.0781ZM229.299 24.375L228.617 25.1065L228.623 25.1124L229.299 24.375ZM231.32 30.8613L232.307 31.0257L232.315 30.9776L232.318 30.929L231.32 30.8613ZM231.303 30.9668L232.129 31.5308L232.253 31.3487L232.289 31.1312L231.303 30.9668ZM230.811 31.6875L230.838 32.6871L231.348 32.673L231.636 32.2515L230.811 31.6875ZM220 31.9863L219.972 30.9867L218.922 31.0157L219.003 32.063L220 31.9863ZM221.336 34.5879L220.699 35.3589L220.706 35.3643L221.336 34.5879ZM227.277 35.0098L226.946 34.0664L226.942 34.0676L227.277 35.0098ZM220.154 30.5952L227.027 30.3843L226.965 28.3852L220.092 28.5962L220.154 30.5952ZM227.996 29.3848V29.1387H225.996V29.3848H227.996ZM227.996 29.1387C227.996 28.0409 227.596 27.0849 226.786 26.3563L225.448 27.8429C225.811 28.169 225.996 28.5723 225.996 29.1387H227.996ZM226.794 26.3637C226.001 25.6342 225.012 25.291 223.902 25.291V27.291C224.574 27.291 225.061 27.4869 225.44 27.8355L226.794 26.3637ZM223.902 25.291C222.695 25.291 221.62 25.6526 220.747 26.4182L222.066 27.9217C222.529 27.5154 223.117 27.291 223.902 27.291V25.291ZM220.754 26.4116C219.879 27.1645 219.358 28.1972 219.139 29.4188L221.107 29.7726C221.263 28.9082 221.598 28.3238 222.058 27.9282L220.754 26.4116ZM229.643 33.2145L229.027 38.0836L231.012 38.3343L231.627 33.4652L229.643 33.2145ZM229.588 37.3069C228.567 37.7951 227.574 38.1504 226.608 38.3783L227.068 40.3248C228.188 40.0606 229.316 39.6541 230.451 39.1111L229.588 37.3069ZM226.608 38.3783C225.64 38.6067 224.663 38.7207 223.674 38.7207V40.7207C224.818 40.7207 225.95 40.5886 227.068 40.3248L226.608 38.3783ZM223.674 38.7207C221.239 38.7207 219.373 38.029 217.976 36.7226L216.61 38.1837C218.447 39.9007 220.835 40.7207 223.674 40.7207V38.7207ZM217.979 36.7252C216.583 35.4102 215.867 33.7034 215.867 31.5117H213.867C213.867 34.1951 214.769 36.4492 216.607 38.181L217.979 36.7252ZM215.867 31.5117C215.867 29.2294 216.65 27.3433 218.224 25.7899L216.819 24.3663C214.854 26.3051 213.867 28.7081 213.867 31.5117H215.867ZM218.226 25.7876C219.805 24.2189 221.701 23.4414 223.973 23.4414V21.4414C221.182 21.4414 218.777 22.4217 216.817 24.3687L218.226 25.7876ZM223.973 23.4414C225.927 23.4414 227.447 24.0154 228.617 25.1065L229.981 23.6435C228.386 22.1565 226.354 21.4414 223.973 21.4414V23.4414ZM228.623 25.1124C229.794 26.1843 230.391 27.5664 230.391 29.3496H232.391C232.391 27.0547 231.593 25.1203 229.974 23.6376L228.623 25.1124ZM230.391 29.3496C230.391 29.6297 230.369 30.1048 230.323 30.7937L232.318 30.929C232.365 30.235 232.391 29.7023 232.391 29.3496H230.391ZM230.334 30.6969L230.316 30.8024L232.289 31.1312L232.307 31.0257L230.334 30.6969ZM230.477 30.4028L229.985 31.1235L231.636 32.2515L232.129 31.5308L230.477 30.4028ZM230.783 30.6879L219.972 30.9867L220.028 32.9859L230.838 32.6871L230.783 30.6879ZM219.003 32.063C219.105 33.3941 219.676 34.5141 220.699 35.3589L221.973 33.8169C221.378 33.3257 221.059 32.7114 220.997 31.9096L219.003 32.063ZM220.706 35.3643C221.724 36.1904 222.978 36.5723 224.395 36.5723V34.5723C223.35 34.5723 222.565 34.2979 221.966 33.8114L220.706 35.3643ZM224.395 36.5723C225.404 36.5723 226.48 36.3547 227.612 35.952L226.942 34.0676C225.966 34.4149 225.12 34.5723 224.395 34.5723V36.5723ZM227.609 35.9531C228.76 35.5485 229.946 34.9555 231.168 34.1859L230.102 32.4938C228.98 33.2007 227.928 33.721 226.946 34.0664L227.609 35.9531ZM246.807 31.2305H245.807V32.4094L246.97 32.2171L246.807 31.2305ZM246.807 24.7441L246.568 23.773L245.807 23.96V24.7441H246.807ZM251.307 22.8984L250.716 22.0917L250.711 22.095L251.307 22.8984ZM247.791 17.8535L247.66 16.8621L247.658 16.8625L247.791 17.8535ZM245.805 18.2227L244.807 18.155L244.716 19.4985L246.028 19.1973L245.805 18.2227ZM246.156 13.0371L245.971 12.0544L245.211 12.1978L245.159 12.9695L246.156 13.0371ZM248.002 12.7734L247.908 11.7779L247.906 11.778L248.002 12.7734ZM256.018 14.6191L255.375 15.385L255.377 15.3874L256.018 14.6191ZM251.5 27.7676L251.196 26.8149L250.533 27.0265L250.501 27.7222L251.5 27.7676ZM251.377 30.4746L251.54 31.4612L252.339 31.3291L252.376 30.52L251.377 30.4746ZM247 34.3418L246.3 33.6277L246.293 33.6347L247 34.3418ZM251.236 34.3242L250.522 35.024L250.529 35.0314L250.537 35.0386L251.236 34.3242ZM251.219 38.5605L250.512 37.8534L250.505 37.8606L251.219 38.5605ZM247.807 31.2305V24.7441H245.807V31.2305H247.807ZM247.045 25.7153C249.104 25.2097 250.751 24.5547 251.902 23.7018L250.711 22.095C249.87 22.7188 248.517 23.2942 246.568 23.773L247.045 25.7153ZM251.898 23.7051C253.086 22.8347 253.818 21.702 253.818 20.3145H251.818C251.818 20.8957 251.543 21.4856 250.716 22.0917L251.898 23.7051ZM253.818 20.3145C253.818 19.2213 253.395 18.2837 252.529 17.6217L251.314 19.2104C251.644 19.4624 251.818 19.7904 251.818 20.3145H253.818ZM252.529 17.6217C251.699 16.9869 250.631 16.7305 249.443 16.7305V18.7305C250.365 18.7305 250.949 18.931 251.314 19.2104L252.529 17.6217ZM249.443 16.7305C248.908 16.7305 248.312 16.776 247.66 16.8621L247.922 18.8449C248.512 18.767 249.018 18.7305 249.443 18.7305V16.7305ZM247.658 16.8625C247.013 16.9493 246.32 17.0783 245.581 17.248L246.028 19.1973C246.719 19.0388 247.35 18.9218 247.924 18.8446L247.658 16.8625ZM246.802 18.2903L247.154 13.1048L245.159 12.9695L244.807 18.155L246.802 18.2903ZM246.342 14.0198C246.934 13.908 247.519 13.8245 248.098 13.7688L247.906 11.778C247.266 11.8396 246.621 11.9318 245.971 12.0544L246.342 14.0198ZM248.096 13.769C248.687 13.7132 249.265 13.6855 249.83 13.6855V11.6855C249.2 11.6855 248.559 11.7164 247.908 11.7779L248.096 13.769ZM249.83 13.6855C252.255 13.6855 254.067 14.2868 255.375 15.385L256.661 13.8533C254.898 12.3734 252.585 11.6855 249.83 11.6855V13.6855ZM255.377 15.3874C256.68 16.4727 257.338 17.8997 257.338 19.7695H259.338C259.338 17.3503 258.449 15.3437 256.658 13.8509L255.377 15.3874ZM257.338 19.7695C257.338 21.3845 256.824 22.7762 255.786 23.9879L257.304 25.2895C258.656 23.7121 259.338 21.8577 259.338 19.7695H257.338ZM255.786 23.9879C254.737 25.2113 253.229 26.1664 251.196 26.8149L251.804 28.7203C254.107 27.9859 255.962 26.8551 257.304 25.2895L255.786 23.9879ZM250.501 27.7222L250.378 30.4292L252.376 30.52L252.499 27.813L250.501 27.7222ZM251.214 29.488L246.643 30.2439L246.97 32.2171L251.54 31.4612L251.214 29.488ZM247.121 36.4512C247.121 35.8991 247.307 35.4494 247.707 35.0489L246.293 33.6347C245.522 34.406 245.121 35.3626 245.121 36.4512H247.121ZM247.7 35.0559C248.118 34.646 248.573 34.4629 249.109 34.4629V32.4629C248.029 32.4629 247.077 32.8657 246.3 33.6277L247.7 35.0559ZM249.109 34.4629C249.715 34.4629 250.161 34.6551 250.522 35.024L251.951 33.6244C251.187 32.8449 250.214 32.4629 249.109 32.4629V34.4629ZM250.537 35.0386C250.905 35.4 251.098 35.8453 251.098 36.4512H253.098C253.098 35.3461 252.716 34.3735 251.936 33.6099L250.537 35.0386ZM251.098 36.4512C251.098 37.0033 250.912 37.4529 250.512 37.8534L251.926 39.2677C252.697 38.4963 253.098 37.5397 253.098 36.4512H251.098ZM250.505 37.8606C250.121 38.2516 249.677 38.4395 249.109 38.4395V40.4395C250.206 40.4395 251.168 40.0414 251.933 39.2605L250.505 37.8606ZM249.109 38.4395C248.595 38.4395 248.147 38.2586 247.725 37.8359L246.31 39.2501C247.083 40.0226 248.03 40.4395 249.109 40.4395V38.4395ZM247.725 37.8359C247.302 37.4131 247.121 36.9655 247.121 36.4512H245.121C245.121 37.5306 245.538 38.4775 246.31 39.2501L247.725 37.8359Z" fill="white"/>
</g>
<defs>
<filter id="filter0_dd_251_785" x="35.0078" y="12.6855" width="224.33" height="31.1406" filterUnits="userSpaceOnUse" color-interpolation-filters="sRGB">
<feFlood flood-opacity="0" result="BackgroundImageFix"/>
<feColorMatrix in="SourceAlpha" type="matrix" values="0 0 0 0 0 0 0 0 0 0 0 0 0 0 0 0 0 0 127 0" result="hardAlpha"/>
<feOffset dx="1" dy="1"/>
<feComposite in2="hardAlpha" operator="out"/>
<feColorMatrix type="matrix" values="0 0 0 0 0.243137 0 0 0 0 0.25098 0 0 0 0 0.584314 0 0 0 1 0"/>
<feBlend mode="normal" in2="BackgroundImageFix" result="effect1_dropShadow_251_785"/>
<feColorMatrix in="SourceAlpha" type="matrix" values="0 0 0 0 0 0 0 0 0 0 0 0 0 0 0 0 0 0 127 0" result="hardAlpha"/>
<feOffset dy="4"/>
<feComposite in2="hardAlpha" operator="out"/>
<feColorMatrix type="matrix" values="0 0 0 0 1 0 0 0 0 0.8 0 0 0 0 0.160784 0 0 0 1 0"/>
<feBlend mode="normal" in2="effect1_dropShadow_251_785" result="effect2_dropShadow_251_785"/>
<feBlend mode="normal" in="SourceGraphic" in2="effect2_dropShadow_251_785" result="shape"/>
</filter>
</defs>
</svg>
