<svg xmlns="http://www.w3.org/2000/svg" viewBox="0 0 1440 320"><path fill="#eee" fill-opacity="1" d="M0,32L26.7,42.7C53.3,53,107,75,160,74.7C213.3,75,267,53,320,48C373.3,43,427,53,480,90.7C533.3,128,587,192,640,192C693.3,192,747,128,800,122.7C853.3,117,907,171,960,170.7C1013.3,171,1067,117,1120,112C1173.3,107,1227,149,1280,138.7C1333.3,128,1387,64,1413,32L1440,0L1440,0L1413.3,0C1386.7,0,1333,0,1280,0C1226.7,0,1173,0,1120,0C1066.7,0,1013,0,960,0C906.7,0,853,0,800,0C746.7,0,693,0,640,0C586.7,0,533,0,480,0C426.7,0,373,0,320,0C266.7,0,213,0,160,0C106.7,0,53,0,27,0L0,0Z"></path></svg>