<svg width="30" height="30" viewBox="0 0 30 30" fill="none" xmlns="http://www.w3.org/2000/svg">
<path d="M7.92919 25.6938L8.41962 25.9362C10.4634 27.1481 12.7522 27.7137 15.0411 27.7137C22.2346 27.7137 28.1202 21.8963 28.1202 14.7861C28.1202 11.3926 26.7305 8.07984 24.2783 5.65587C21.8259 3.23189 18.556 1.85838 15.0411 1.85838C7.84751 1.85838 1.96177 7.67583 2.04357 14.8669C2.04357 17.2908 2.77927 19.634 4.0054 21.6539L4.33236 22.1387L3.02454 26.9058L7.92919 25.6938Z" fill="#00E676"/>
<path d="M25.6679 4.36309C22.8886 1.53521 19.0466 0 15.1228 0C6.78492 0 0.0817969 6.70622 0.163477 14.8668C0.163477 17.4524 0.89918 19.9572 2.12543 22.2195L0 29.8953L7.92926 27.8753C10.1364 29.0874 12.5886 29.653 15.0411 29.653C23.2973 29.653 30.0005 22.9466 30.0005 14.7862C30.0005 10.827 28.4473 7.11023 25.668 4.36309H25.6679ZM15.1228 27.1483C12.9157 27.1483 10.7086 26.5828 8.82844 25.4516L8.33801 25.2092L3.59684 26.4211L4.82297 21.8157L4.49602 21.3308C0.89918 15.5942 2.61586 7.999 8.50148 4.44382C14.3871 0.888765 21.9894 2.58556 25.5863 8.40301C29.183 14.2205 27.4663 21.7347 21.5808 25.2899C19.7005 26.5018 17.4117 27.1481 15.1228 27.1481V27.1483ZM22.3164 18.1798L21.4172 17.7758C21.4172 17.7758 20.1094 17.2102 19.2919 16.8061C19.2101 16.8061 19.1284 16.7253 19.0466 16.7253C18.8013 16.7253 18.6379 16.8061 18.4744 16.887C18.4744 16.887 18.3927 16.9677 17.2482 18.2605C17.1664 18.4221 17.003 18.5029 16.8395 18.5029H16.7577C16.676 18.5029 16.5125 18.4221 16.4307 18.3414L16.022 18.1798C15.1228 17.7758 14.3054 17.2909 13.6514 16.6446C13.4879 16.483 13.2427 16.3214 13.0792 16.1598C12.507 15.5942 11.9347 14.9478 11.5261 14.2206L11.4443 14.059C11.3626 13.9781 11.3626 13.8974 11.2808 13.7358C11.2808 13.5742 11.2808 13.4127 11.3626 13.3318C11.3626 13.3318 11.6896 12.9278 11.9347 12.6855C12.0983 12.5238 12.18 12.2815 12.3435 12.1199C12.507 11.8775 12.5887 11.5543 12.507 11.3119C12.4253 10.9078 11.4443 8.72629 11.1991 8.24154C11.0355 7.99911 10.8722 7.91838 10.6269 7.83753H9.72773C9.56414 7.83753 9.40078 7.91838 9.23719 7.91838L9.15539 7.99911C8.99191 8.07996 8.82844 8.24154 8.66496 8.32228C8.50148 8.48398 8.41969 8.64544 8.25621 8.80714C7.68398 9.53433 7.35703 10.4231 7.35703 11.3119C7.35703 11.9582 7.52051 12.6046 7.76578 13.1702L7.84758 13.4127C8.58328 14.9478 9.56414 16.3214 10.8722 17.5333L11.1991 17.8565C11.4443 18.0989 11.6896 18.2605 11.853 18.5028C13.5697 19.9573 15.5316 21.0076 17.7387 21.5732C17.9839 21.654 18.3109 21.654 18.5562 21.7348H19.3736C19.7823 21.7348 20.2727 21.5732 20.5998 21.4117C20.845 21.2501 21.0084 21.2501 21.1719 21.0885L21.3355 20.9268C21.499 20.7652 21.6625 20.6845 21.8259 20.5229C21.9894 20.3613 22.1529 20.1997 22.2347 20.038C22.3982 19.7149 22.4798 19.3109 22.5616 18.9069V18.3414C22.5616 18.3414 22.4798 18.2605 22.3164 18.1798Z" fill="white"/>
</svg>
